<?xml version="1.0" encoding="UTF-8" standalone="no"?>
<!DOCTYPE svg PUBLIC "-//W3C//DTD SVG 1.1//EN"
 "http://www.w3.org/Graphics/SVG/1.1/DTD/svg11.dtd">
<!-- Generated by graphviz version 2.42.3 (20191010.1750)
 -->
<!-- Title: %3 Pages: 1 -->
<svg width="143pt" height="203pt"
 viewBox="0.00 0.00 143.00 203.00" xmlns="http://www.w3.org/2000/svg" xmlns:xlink="http://www.w3.org/1999/xlink">
<g id="graph0" class="graph" transform="scale(1 1) rotate(0) translate(4 199)">
<title>%3</title>
<polygon fill="white" stroke="transparent" points="-4,4 -4,-199 139,-199 139,4 -4,4"/>
<!-- X -->
<g id="node1" class="node">
<title>X</title>
<ellipse fill="none" stroke="black" cx="108" cy="-104" rx="27" ry="18"/>
<text text-anchor="middle" x="108" y="-99.8" font-family="Times,serif" font-size="14.00">X</text>
</g>
<!-- Y -->
<g id="node2" class="node">
<title>Y</title>
<ellipse fill="none" stroke="black" cx="33" cy="-18" rx="27" ry="18"/>
<text text-anchor="middle" x="33" y="-13.8" font-family="Times,serif" font-size="14.00">Y</text>
</g>
<!-- X&#45;&gt;Y -->
<g id="edge1" class="edge">
<title>X&#45;&gt;Y</title>
<path fill="none" stroke="black" d="M94.59,-87.98C83.07,-75.08 66.3,-56.29 53.16,-41.58"/>
<polygon fill="black" stroke="black" points="55.56,-39.02 46.29,-33.89 50.34,-43.68 55.56,-39.02"/>
<text text-anchor="middle" x="104.02" y="-56.8" font-family="Times,serif" font-size="14.00">Cửa trước</text>
</g>
<!-- W -->
<g id="node3" class="node">
<title>W</title>
<ellipse fill="none" stroke="black" cx="27" cy="-177" rx="27" ry="18"/>
<text text-anchor="middle" x="27" y="-172.8" font-family="Times,serif" font-size="14.00">W</text>
</g>
<!-- W&#45;&gt;X -->
<g id="edge2" class="edge">
<title>W&#45;&gt;X</title>
<path fill="none" stroke="black" d="M42.62,-162.31C54.53,-151.87 71.13,-137.31 84.63,-125.49"/>
<polygon fill="black" stroke="black" points="86.94,-128.11 92.15,-118.89 82.33,-122.85 86.94,-128.11"/>
</g>
<!-- W&#45;&gt;Y -->
<g id="edge3" class="edge">
<title>W&#45;&gt;Y</title>
<path fill="none" stroke="black" d="M26.77,-158.98C26.64,-148.35 26.49,-134.38 26.42,-122 26.34,-106 25.64,-101.98 26.42,-86 27.07,-72.82 28.43,-58.23 29.74,-46.04"/>
<polygon fill="black" stroke="black" points="33.22,-46.37 30.86,-36.04 26.27,-45.59 33.22,-46.37"/>
<text text-anchor="middle" x="49.79" y="-99.8" font-family="Times,serif" font-size="14.00">Cửa sau</text>
</g>
<!-- Z -->
<g id="node4" class="node">
<title>Z</title>
<ellipse fill="none" stroke="black" cx="108" cy="-177" rx="27" ry="18"/>
<text text-anchor="middle" x="108" y="-172.8" font-family="Times,serif" font-size="14.00">Z</text>
</g>
<!-- Z&#45;&gt;X -->
<g id="edge4" class="edge">
<title>Z&#45;&gt;X</title>
<path fill="none" stroke="black" d="M108,-158.81C108,-150.79 108,-141.05 108,-132.07"/>
<polygon fill="black" stroke="black" points="111.5,-132.03 108,-122.03 104.5,-132.03 111.5,-132.03"/>
</g>
</g>
</svg>
