<?xml version="1.0" encoding="UTF-8" standalone="no"?>
<!DOCTYPE svg PUBLIC "-//W3C//DTD SVG 1.1//EN"
 "http://www.w3.org/Graphics/SVG/1.1/DTD/svg11.dtd">
<!-- Generated by graphviz version 2.42.3 (20191010.1750)
 -->
<!-- Title: %3 Pages: 1 -->
<svg width="314pt" height="116pt"
 viewBox="0.00 0.00 313.80 116.00" xmlns="http://www.w3.org/2000/svg" xmlns:xlink="http://www.w3.org/1999/xlink">
<g id="graph0" class="graph" transform="scale(1 1) rotate(0) translate(4 112)">
<title>%3</title>
<polygon fill="white" stroke="transparent" points="-4,4 -4,-112 309.8,-112 309.8,4 -4,4"/>
<!-- Biến Độc lập (X) -->
<g id="node1" class="node">
<title>Biến Độc lập (X)</title>
<ellipse fill="none" stroke="black" cx="71.9" cy="-90" rx="71.8" ry="18"/>
<text text-anchor="middle" x="71.9" y="-85.8" font-family="Times,serif" font-size="14.00">Biến Độc lập (X)</text>
</g>
<!-- Biến Đích chung (C) -->
<g id="node2" class="node">
<title>Biến Đích chung (C)</title>
<ellipse fill="none" stroke="black" cx="152.9" cy="-18" rx="84.85" ry="18"/>
<text text-anchor="middle" x="152.9" y="-13.8" font-family="Times,serif" font-size="14.00">Biến Đích chung (C)</text>
</g>
<!-- Biến Độc lập (X)&#45;&gt;Biến Đích chung (C) -->
<g id="edge1" class="edge">
<title>Biến Độc lập (X)&#45;&gt;Biến Đích chung (C)</title>
<path fill="none" stroke="black" d="M91.09,-72.41C101.51,-63.41 114.55,-52.14 125.97,-42.27"/>
<polygon fill="black" stroke="black" points="128.28,-44.9 133.56,-35.71 123.71,-39.6 128.28,-44.9"/>
</g>
<!-- Biến Độc lập (Y) -->
<g id="node3" class="node">
<title>Biến Độc lập (Y)</title>
<ellipse fill="none" stroke="black" cx="233.9" cy="-90" rx="71.8" ry="18"/>
<text text-anchor="middle" x="233.9" y="-85.8" font-family="Times,serif" font-size="14.00">Biến Độc lập (Y)</text>
</g>
<!-- Biến Độc lập (Y)&#45;&gt;Biến Đích chung (C) -->
<g id="edge2" class="edge">
<title>Biến Độc lập (Y)&#45;&gt;Biến Đích chung (C)</title>
<path fill="none" stroke="black" d="M214.7,-72.41C204.29,-63.41 191.25,-52.14 179.83,-42.27"/>
<polygon fill="black" stroke="black" points="182.09,-39.6 172.24,-35.71 177.52,-44.9 182.09,-39.6"/>
</g>
</g>
</svg>
