<?xml version="1.0" encoding="UTF-8" standalone="no"?>
<!DOCTYPE svg PUBLIC "-//W3C//DTD SVG 1.1//EN"
 "http://www.w3.org/Graphics/SVG/1.1/DTD/svg11.dtd">
<!-- Generated by graphviz version 2.40.1 (20161225.0304)
 -->
<!-- Title: %3 Pages: 1 -->
<svg width="139pt" height="204pt"
 viewBox="0.00 0.00 139.00 204.00" xmlns="http://www.w3.org/2000/svg" xmlns:xlink="http://www.w3.org/1999/xlink">
<g id="graph0" class="graph" transform="scale(1 1) rotate(0) translate(4 200)">
<title>%3</title>
<polygon fill="#ffffff" stroke="transparent" points="-4,4 -4,-200 135,-200 135,4 -4,4"/>
<!-- X -->
<g id="node1" class="node">
<title>X</title>
<ellipse fill="none" stroke="#000000" cx="27" cy="-105" rx="27" ry="18"/>
<text text-anchor="middle" x="27" y="-101.3" font-family="Times,serif" font-size="14.00" fill="#000000">X</text>
</g>
<!-- Y -->
<g id="node2" class="node">
<title>Y</title>
<ellipse fill="none" stroke="#000000" cx="58" cy="-18" rx="27" ry="18"/>
<text text-anchor="middle" x="58" y="-14.3" font-family="Times,serif" font-size="14.00" fill="#000000">Y</text>
</g>
<!-- X&#45;&gt;Y -->
<g id="edge1" class="edge">
<title>X&#45;&gt;Y</title>
<path fill="none" stroke="#000000" d="M21.2316,-87.3906C18.8921,-77.2708 17.6421,-64.5208 22,-54 24.3403,-48.3501 28.0451,-43.1246 32.2059,-38.5068"/>
<polygon fill="#000000" stroke="#000000" points="34.8115,-40.853 39.4785,-31.3414 29.8986,-35.8667 34.8115,-40.853"/>
<text text-anchor="middle" x="51.5" y="-57.8" font-family="Times,serif" font-size="14.00" fill="#000000">Cửa trước</text>
</g>
<!-- W -->
<g id="node3" class="node">
<title>W</title>
<ellipse fill="none" stroke="#000000" cx="63" cy="-178" rx="27" ry="18"/>
<text text-anchor="middle" x="63" y="-174.3" font-family="Times,serif" font-size="14.00" fill="#000000">W</text>
</g>
<!-- W&#45;&gt;X -->
<g id="edge2" class="edge">
<title>W&#45;&gt;X</title>
<path fill="none" stroke="#000000" d="M54.4685,-160.7C50.1197,-151.8815 44.74,-140.9727 39.8974,-131.153"/>
<polygon fill="#000000" stroke="#000000" points="43.0323,-129.5965 35.4703,-122.1758 36.7542,-132.6926 43.0323,-129.5965"/>
</g>
<!-- W&#45;&gt;Y -->
<g id="edge3" class="edge">
<title>W&#45;&gt;Y</title>
<path fill="none" stroke="#000000" d="M70.1694,-160.4211C79.0598,-136.0875 91.7983,-90.9583 81,-54 79.8625,-50.1068 78.1614,-46.2341 76.1894,-42.5508"/>
<polygon fill="#000000" stroke="#000000" points="79.0945,-40.5923 70.8961,-33.8813 73.1201,-44.2401 79.0945,-40.5923"/>
<text text-anchor="middle" x="108" y="-101.3" font-family="Times,serif" font-size="14.00" fill="#000000">Cửa sau</text>
</g>
</g>
</svg>
