<?xml version="1.0" encoding="UTF-8" standalone="no"?>
<!DOCTYPE svg PUBLIC "-//W3C//DTD SVG 1.1//EN"
 "http://www.w3.org/Graphics/SVG/1.1/DTD/svg11.dtd">
<!-- Generated by graphviz version 2.42.3 (20191010.1750)
 -->
<!-- Title: %3 Pages: 1 -->
<svg width="237pt" height="362pt"
 viewBox="0.00 0.00 236.70 362.00" xmlns="http://www.w3.org/2000/svg" xmlns:xlink="http://www.w3.org/1999/xlink">
<g id="graph0" class="graph" transform="scale(1 1) rotate(0) translate(4 358)">
<title>%3</title>
<polygon fill="white" stroke="transparent" points="-4,4 -4,-358 232.7,-358 232.7,4 -4,4"/>
<!-- (Nhận) Can thiệp -->
<g id="node1" class="node">
<title>(Nhận) Can thiệp</title>
<ellipse fill="none" stroke="black" cx="93.94" cy="-104" rx="71.5" ry="18"/>
<text text-anchor="middle" x="93.94" y="-99.8" font-family="Times,serif" font-size="14.00">(Nhận) Can thiệp</text>
</g>
<!-- Kết quả (Y) -->
<g id="node2" class="node">
<title>Kết quả (Y)</title>
<ellipse fill="none" stroke="black" cx="93.94" cy="-18" rx="52.97" ry="18"/>
<text text-anchor="middle" x="93.94" y="-13.8" font-family="Times,serif" font-size="14.00">Kết quả (Y)</text>
</g>
<!-- (Nhận) Can thiệp&#45;&gt;Kết quả (Y) -->
<g id="edge1" class="edge">
<title>(Nhận) Can thiệp&#45;&gt;Kết quả (Y)</title>
<path fill="none" stroke="black" d="M93.94,-85.6C93.94,-74.26 93.94,-59.23 93.94,-46.32"/>
<polygon fill="black" stroke="black" points="97.44,-46.1 93.94,-36.1 90.44,-46.1 97.44,-46.1"/>
<text text-anchor="middle" x="122.96" y="-56.8" font-family="Times,serif" font-size="14.00">Cửa trước</text>
</g>
<!-- Biến Chạy (X) -->
<g id="node3" class="node">
<title>Biến Chạy (X)</title>
<ellipse fill="none" stroke="black" cx="71.94" cy="-263" rx="62.64" ry="18"/>
<text text-anchor="middle" x="71.94" y="-258.8" font-family="Times,serif" font-size="14.00">Biến Chạy (X)</text>
</g>
<!-- Biến Chạy (X)&#45;&gt;Kết quả (Y) -->
<g id="edge4" class="edge">
<title>Biến Chạy (X)&#45;&gt;Kết quả (Y)</title>
<path fill="none" stroke="black" d="M43.32,-246.74C29.28,-237.56 13.74,-224.46 5.94,-208 -4.08,-186.86 -0.44,-111.67 12.94,-86 23.07,-66.57 41.51,-50.63 58.25,-39.17"/>
<polygon fill="black" stroke="black" points="60.33,-42 66.79,-33.6 56.5,-36.13 60.33,-42"/>
<text text-anchor="middle" x="24.73" y="-142.8" font-family="Times,serif" font-size="14.00">Cửa sau</text>
</g>
<!-- Vượt ngưỡng -->
<g id="node4" class="node">
<title>Vượt ngưỡng</title>
<ellipse fill="none" stroke="black" cx="74.94" cy="-190" rx="59.53" ry="18"/>
<text text-anchor="middle" x="74.94" y="-185.8" font-family="Times,serif" font-size="14.00">Vượt ngưỡng</text>
</g>
<!-- Biến Chạy (X)&#45;&gt;Vượt ngưỡng -->
<g id="edge2" class="edge">
<title>Biến Chạy (X)&#45;&gt;Vượt ngưỡng</title>
<path fill="none" stroke="black" d="M72.67,-244.81C73,-236.79 73.42,-227.05 73.8,-218.07"/>
<polygon fill="black" stroke="black" points="77.29,-218.17 74.22,-208.03 70.3,-217.87 77.29,-218.17"/>
</g>
<!-- Vượt ngưỡng&#45;&gt;(Nhận) Can thiệp -->
<g id="edge3" class="edge">
<title>Vượt ngưỡng&#45;&gt;(Nhận) Can thiệp</title>
<path fill="none" stroke="black" d="M78.78,-172C81.37,-160.58 84.83,-145.27 87.79,-132.18"/>
<polygon fill="black" stroke="black" points="91.24,-132.79 90.04,-122.26 84.42,-131.24 91.24,-132.79"/>
</g>
<!-- Biến nhiễu (W) -->
<g id="node5" class="node">
<title>Biến nhiễu (W)</title>
<ellipse fill="none" stroke="black" cx="162.94" cy="-336" rx="65.52" ry="18"/>
<text text-anchor="middle" x="162.94" y="-331.8" font-family="Times,serif" font-size="14.00">Biến nhiễu (W)</text>
</g>
<!-- Biến nhiễu (W)&#45;&gt;(Nhận) Can thiệp -->
<g id="edge7" class="edge">
<title>Biến nhiễu (W)&#45;&gt;(Nhận) Can thiệp</title>
<path fill="none" stroke="black" d="M163.81,-317.63C164.71,-287.03 163.84,-222.03 143.94,-172 137.75,-156.44 126.98,-141.3 117.02,-129.35"/>
<polygon fill="black" stroke="black" points="119.52,-126.89 110.32,-121.63 114.23,-131.48 119.52,-126.89"/>
</g>
<!-- Biến nhiễu (W)&#45;&gt;Kết quả (Y) -->
<g id="edge6" class="edge">
<title>Biến nhiễu (W)&#45;&gt;Kết quả (Y)</title>
<path fill="none" stroke="black" d="M177.96,-318.25C188.58,-304.63 200.94,-284.41 200.94,-264 200.94,-264 200.94,-264 200.94,-103 200.94,-70.08 169.21,-48.1 140.3,-34.91"/>
<polygon fill="black" stroke="black" points="141.63,-31.67 131.06,-30.94 138.87,-38.1 141.63,-31.67"/>
</g>
<!-- Biến nhiễu (W)&#45;&gt;Biến Chạy (X) -->
<g id="edge5" class="edge">
<title>Biến nhiễu (W)&#45;&gt;Biến Chạy (X)</title>
<path fill="none" stroke="black" d="M142.29,-318.89C129.96,-309.27 114.11,-296.9 100.58,-286.35"/>
<polygon fill="black" stroke="black" points="102.54,-283.44 92.51,-280.05 98.24,-288.96 102.54,-283.44"/>
</g>
</g>
</svg>
