<?xml version="1.0" encoding="UTF-8" standalone="no"?>
<!DOCTYPE svg PUBLIC "-//W3C//DTD SVG 1.1//EN"
 "http://www.w3.org/Graphics/SVG/1.1/DTD/svg11.dtd">
<!-- Generated by graphviz version 2.42.3 (20191010.1750)
 -->
<!-- Title: %3 Pages: 1 -->
<svg width="230pt" height="289pt"
 viewBox="0.00 0.00 230.32 289.00" xmlns="http://www.w3.org/2000/svg" xmlns:xlink="http://www.w3.org/1999/xlink">
<g id="graph0" class="graph" transform="scale(1 1) rotate(0) translate(4 285)">
<title>%3</title>
<polygon fill="white" stroke="transparent" points="-4,4 -4,-285 226.32,-285 226.32,4 -4,4"/>
<!-- (Nhận) Can thiệp -->
<g id="node1" class="node">
<title>(Nhận) Can thiệp</title>
<ellipse fill="none" stroke="black" cx="150.82" cy="-104" rx="71.5" ry="18"/>
<text text-anchor="middle" x="150.82" y="-99.8" font-family="Times,serif" font-size="14.00">(Nhận) Can thiệp</text>
</g>
<!-- Kết quả (Y) -->
<g id="node2" class="node">
<title>Kết quả (Y)</title>
<ellipse fill="none" stroke="black" cx="66.82" cy="-18" rx="52.97" ry="18"/>
<text text-anchor="middle" x="66.82" y="-13.8" font-family="Times,serif" font-size="14.00">Kết quả (Y)</text>
</g>
<!-- (Nhận) Can thiệp&#45;&gt;Kết quả (Y) -->
<g id="edge1" class="edge">
<title>(Nhận) Can thiệp&#45;&gt;Kết quả (Y)</title>
<path fill="none" stroke="black" d="M134.22,-86.4C121.72,-73.9 104.4,-56.58 90.45,-42.63"/>
<polygon fill="black" stroke="black" points="92.64,-39.87 83.09,-35.28 87.69,-44.82 92.64,-39.87"/>
<text text-anchor="middle" x="143.84" y="-56.8" font-family="Times,serif" font-size="14.00">Cửa trước</text>
</g>
<!-- Biến Chạy (X) -->
<g id="node3" class="node">
<title>Biến Chạy (X)</title>
<ellipse fill="none" stroke="black" cx="62.82" cy="-263" rx="62.64" ry="18"/>
<text text-anchor="middle" x="62.82" y="-258.8" font-family="Times,serif" font-size="14.00">Biến Chạy (X)</text>
</g>
<!-- Biến Chạy (X)&#45;&gt;Kết quả (Y) -->
<g id="edge4" class="edge">
<title>Biến Chạy (X)&#45;&gt;Kết quả (Y)</title>
<path fill="none" stroke="black" d="M63.1,-244.91C63.78,-203.35 65.54,-96.67 66.37,-46.22"/>
<polygon fill="black" stroke="black" points="69.87,-46.12 66.54,-36.07 62.87,-46.01 69.87,-46.12"/>
<text text-anchor="middle" x="87.61" y="-142.8" font-family="Times,serif" font-size="14.00">Cửa sau</text>
</g>
<!-- Vượt ngưỡng -->
<g id="node4" class="node">
<title>Vượt ngưỡng</title>
<ellipse fill="none" stroke="black" cx="144.82" cy="-190" rx="59.53" ry="18"/>
<text text-anchor="middle" x="144.82" y="-185.8" font-family="Times,serif" font-size="14.00">Vượt ngưỡng</text>
</g>
<!-- Biến Chạy (X)&#45;&gt;Vượt ngưỡng -->
<g id="edge2" class="edge">
<title>Biến Chạy (X)&#45;&gt;Vượt ngưỡng</title>
<path fill="none" stroke="black" d="M81.84,-245.53C92.68,-236.15 106.43,-224.24 118.31,-213.95"/>
<polygon fill="black" stroke="black" points="120.92,-216.33 126.19,-207.13 116.33,-211.03 120.92,-216.33"/>
</g>
<!-- Vượt ngưỡng&#45;&gt;(Nhận) Can thiệp -->
<g id="edge3" class="edge">
<title>Vượt ngưỡng&#45;&gt;(Nhận) Can thiệp</title>
<path fill="none" stroke="black" d="M146.03,-172C146.84,-160.69 147.92,-145.58 148.85,-132.57"/>
<polygon fill="black" stroke="black" points="152.36,-132.49 149.58,-122.26 145.38,-131.99 152.36,-132.49"/>
</g>
</g>
</svg>
