<?xml version="1.0" encoding="UTF-8" standalone="no"?>
<!DOCTYPE svg PUBLIC "-//W3C//DTD SVG 1.1//EN"
 "http://www.w3.org/Graphics/SVG/1.1/DTD/svg11.dtd">
<!-- Generated by graphviz version 2.42.3 (20191010.1750)
 -->
<!-- Title: %3 Pages: 1 -->
<svg width="148pt" height="203pt"
 viewBox="0.00 0.00 147.55 203.00" xmlns="http://www.w3.org/2000/svg" xmlns:xlink="http://www.w3.org/1999/xlink">
<g id="graph0" class="graph" transform="scale(1 1) rotate(0) translate(4 199)">
<title>%3</title>
<polygon fill="white" stroke="transparent" points="-4,4 -4,-199 143.55,-199 143.55,4 -4,4"/>
<!-- X -->
<g id="node1" class="node">
<title>X</title>
<ellipse fill="none" stroke="black" cx="33.77" cy="-104" rx="27" ry="18"/>
<text text-anchor="middle" x="33.77" y="-99.8" font-family="Times,serif" font-size="14.00">X</text>
</g>
<!-- Y -->
<g id="node2" class="node">
<title>Y</title>
<ellipse fill="none" stroke="black" cx="64.77" cy="-18" rx="27" ry="18"/>
<text text-anchor="middle" x="64.77" y="-13.8" font-family="Times,serif" font-size="14.00">Y</text>
</g>
<!-- X&#45;&gt;Y -->
<g id="edge1" class="edge">
<title>X&#45;&gt;Y</title>
<path fill="none" stroke="black" d="M28.62,-86.07C26.56,-76.34 25.55,-64.09 29.74,-54 32.06,-48.4 35.75,-43.24 39.9,-38.68"/>
<polygon fill="black" stroke="black" points="42.4,-41.13 47.12,-31.64 37.52,-36.12 42.4,-41.13"/>
<text text-anchor="middle" x="58.79" y="-56.8" font-family="Times,serif" font-size="14.00">Cửa trước</text>
</g>
<!-- Đặc tính cá nhân -->
<g id="node3" class="node">
<title>Đặc tính cá nhân</title>
<ellipse fill="none" stroke="black" cx="69.77" cy="-177" rx="69.55" ry="18"/>
<text text-anchor="middle" x="69.77" y="-172.8" font-family="Times,serif" font-size="14.00">Đặc tính cá nhân</text>
</g>
<!-- Đặc tính cá nhân&#45;&gt;X -->
<g id="edge2" class="edge">
<title>Đặc tính cá nhân&#45;&gt;X</title>
<path fill="none" stroke="black" d="M61.06,-158.81C56.75,-150.32 51.47,-139.9 46.7,-130.49"/>
<polygon fill="black" stroke="black" points="49.8,-128.88 42.16,-121.54 43.56,-132.04 49.8,-128.88"/>
</g>
<!-- Đặc tính cá nhân&#45;&gt;Y -->
<g id="edge3" class="edge">
<title>Đặc tính cá nhân&#45;&gt;Y</title>
<path fill="none" stroke="black" d="M76.96,-158.69C85.87,-134.73 98.64,-90.31 87.77,-54 86.61,-50.11 84.86,-46.26 82.84,-42.61"/>
<polygon fill="black" stroke="black" points="85.73,-40.62 77.42,-34.05 79.81,-44.37 85.73,-40.62"/>
<text text-anchor="middle" x="114.56" y="-99.8" font-family="Times,serif" font-size="14.00">Cửa sau</text>
</g>
</g>
</svg>
