<?xml version="1.0" encoding="UTF-8" standalone="no"?>
<!DOCTYPE svg PUBLIC "-//W3C//DTD SVG 1.1//EN"
 "http://www.w3.org/Graphics/SVG/1.1/DTD/svg11.dtd">
<!-- Generated by graphviz version 2.40.1 (20161225.0304)
 -->
<!-- Title: %3 Pages: 1 -->
<svg width="192pt" height="188pt"
 viewBox="0.00 0.00 191.54 188.00" xmlns="http://www.w3.org/2000/svg" xmlns:xlink="http://www.w3.org/1999/xlink">
<g id="graph0" class="graph" transform="scale(1 1) rotate(0) translate(4 184)">
<title>%3</title>
<polygon fill="#ffffff" stroke="transparent" points="-4,4 -4,-184 187.5427,-184 187.5427,4 -4,4"/>
<!-- chỉ định -->
<g id="node1" class="node">
<title>chỉ định</title>
<ellipse fill="none" stroke="#000000" cx="40.2964" cy="-162" rx="40.0939" ry="18"/>
<text text-anchor="middle" x="40.2964" y="-158.3" font-family="Times,serif" font-size="14.00" fill="#000000">chỉ định</text>
</g>
<!-- tiếp nhận -->
<g id="node2" class="node">
<title>tiếp nhận</title>
<ellipse fill="none" stroke="#000000" cx="68.2964" cy="-90" rx="44.6926" ry="18"/>
<text text-anchor="middle" x="68.2964" y="-86.3" font-family="Times,serif" font-size="14.00" fill="#000000">tiếp nhận</text>
</g>
<!-- chỉ định&#45;&gt;tiếp nhận -->
<g id="edge1" class="edge">
<title>chỉ định&#45;&gt;tiếp nhận</title>
<path fill="none" stroke="#000000" d="M47.2178,-144.2022C50.3813,-136.0675 54.1992,-126.2501 57.7116,-117.2181"/>
<polygon fill="#000000" stroke="#000000" points="60.9951,-118.4312 61.3577,-107.8425 54.4711,-115.894 60.9951,-118.4312"/>
</g>
<!-- lượng mua -->
<g id="node3" class="node">
<title>lượng mua</title>
<ellipse fill="none" stroke="#000000" cx="104.2964" cy="-18" rx="50.8918" ry="18"/>
<text text-anchor="middle" x="104.2964" y="-14.3" font-family="Times,serif" font-size="14.00" fill="#000000">lượng mua</text>
</g>
<!-- tiếp nhận&#45;&gt;lượng mua -->
<g id="edge2" class="edge">
<title>tiếp nhận&#45;&gt;lượng mua</title>
<path fill="none" stroke="#000000" d="M77.1953,-72.2022C81.3059,-63.981 86.2759,-54.041 90.8314,-44.9301"/>
<polygon fill="#000000" stroke="#000000" points="94.0335,-46.3521 95.3752,-35.8425 87.7725,-43.2216 94.0335,-46.3521"/>
</g>
<!-- thu nhập -->
<g id="node4" class="node">
<title>thu nhập</title>
<ellipse fill="none" stroke="#0000ff" cx="141.2964" cy="-162" rx="42.4939" ry="18"/>
<text text-anchor="middle" x="141.2964" y="-158.3" font-family="Times,serif" font-size="14.00" fill="#000000">thu nhập</text>
</g>
<!-- thu nhập&#45;&gt;tiếp nhận -->
<g id="edge4" class="edge">
<title>thu nhập&#45;&gt;tiếp nhận</title>
<path fill="none" stroke="#000000" d="M124.3653,-145.3008C114.9431,-136.0077 103.0509,-124.2784 92.6458,-114.0158"/>
<polygon fill="#000000" stroke="#000000" points="94.9661,-111.3883 85.3886,-106.8581 90.0506,-116.3721 94.9661,-111.3883"/>
</g>
<!-- thu nhập&#45;&gt;lượng mua -->
<g id="edge3" class="edge">
<title>thu nhập&#45;&gt;lượng mua</title>
<path fill="none" stroke="#000000" d="M138.1069,-143.9268C134.7355,-125.6511 128.9861,-96.6598 122.2964,-72 119.9788,-63.4566 117.0792,-54.2803 114.2886,-45.9602"/>
<polygon fill="#000000" stroke="#000000" points="117.5422,-44.6582 110.9853,-36.3361 110.9214,-46.9307 117.5422,-44.6582"/>
</g>
</g>
</svg>
