<?xml version="1.0" encoding="UTF-8" standalone="no"?>
<!DOCTYPE svg PUBLIC "-//W3C//DTD SVG 1.1//EN"
 "http://www.w3.org/Graphics/SVG/1.1/DTD/svg11.dtd">
<!-- Generated by graphviz version 2.40.1 (20161225.0304)
 -->
<!-- Title: %3 Pages: 1 -->
<svg width="199pt" height="188pt"
 viewBox="0.00 0.00 198.99 188.00" xmlns="http://www.w3.org/2000/svg" xmlns:xlink="http://www.w3.org/1999/xlink">
<g id="graph0" class="graph" transform="scale(1 1) rotate(0) translate(4 184)">
<title>%3</title>
<polygon fill="#ffffff" stroke="transparent" points="-4,4 -4,-184 194.9919,-184 194.9919,4 -4,4"/>
<!-- chỉ định -->
<g id="node1" class="node">
<title>chỉ định</title>
<ellipse fill="none" stroke="#000000" cx="40.2964" cy="-162" rx="40.0939" ry="18"/>
<text text-anchor="middle" x="40.2964" y="-158.3" font-family="Times,serif" font-size="14.00" fill="#000000">chỉ định</text>
</g>
<!-- tiếp nhận -->
<g id="node2" class="node">
<title>tiếp nhận</title>
<ellipse fill="none" stroke="#000000" cx="104.2964" cy="-90" rx="44.6926" ry="18"/>
<text text-anchor="middle" x="104.2964" y="-86.3" font-family="Times,serif" font-size="14.00" fill="#000000">tiếp nhận</text>
</g>
<!-- lượng mua -->
<g id="node3" class="node">
<title>lượng mua</title>
<ellipse fill="none" stroke="#000000" cx="140.2964" cy="-18" rx="50.8918" ry="18"/>
<text text-anchor="middle" x="140.2964" y="-14.3" font-family="Times,serif" font-size="14.00" fill="#000000">lượng mua</text>
</g>
<!-- tiếp nhận&#45;&gt;lượng mua -->
<g id="edge1" class="edge">
<title>tiếp nhận&#45;&gt;lượng mua</title>
<path fill="none" stroke="#000000" d="M113.1953,-72.2022C117.3059,-63.981 122.2759,-54.041 126.8314,-44.9301"/>
<polygon fill="#000000" stroke="#000000" points="130.0335,-46.3521 131.3752,-35.8425 123.7725,-43.2216 130.0335,-46.3521"/>
</g>
<!-- thu nhập -->
<g id="node4" class="node">
<title>thu nhập</title>
<ellipse fill="none" stroke="#0000ff" cx="141.2964" cy="-162" rx="42.4939" ry="18"/>
<text text-anchor="middle" x="141.2964" y="-158.3" font-family="Times,serif" font-size="14.00" fill="#000000">thu nhập</text>
</g>
<!-- thu nhập&#45;&gt;tiếp nhận -->
<g id="edge3" class="edge">
<title>thu nhập&#45;&gt;tiếp nhận</title>
<path fill="none" stroke="#000000" d="M132.1504,-144.2022C127.9255,-135.981 122.8175,-126.041 118.1355,-116.9301"/>
<polygon fill="#000000" stroke="#000000" points="121.1493,-115.1371 113.4655,-107.8425 114.9232,-118.3366 121.1493,-115.1371"/>
</g>
<!-- thu nhập&#45;&gt;lượng mua -->
<g id="edge2" class="edge">
<title>thu nhập&#45;&gt;lượng mua</title>
<path fill="none" stroke="#000000" d="M148.5403,-143.8366C152.2676,-133.513 156.4152,-120.2403 158.2964,-108 160.7269,-92.1857 160.8593,-87.7934 158.2964,-72 156.8785,-63.2621 154.2489,-54.0275 151.4293,-45.7136"/>
<polygon fill="#000000" stroke="#000000" points="154.6545,-44.3399 147.9644,-36.1244 148.071,-46.7187 154.6545,-44.3399"/>
</g>
</g>
</svg>
