<?xml version="1.0" encoding="UTF-8" standalone="no"?>
<!DOCTYPE svg PUBLIC "-//W3C//DTD SVG 1.1//EN"
 "http://www.w3.org/Graphics/SVG/1.1/DTD/svg11.dtd">
<!-- Generated by graphviz version 2.42.3 (20191010.1750)
 -->
<!-- Title: %3 Pages: 1 -->
<svg width="197pt" height="188pt"
 viewBox="0.00 0.00 197.49 188.00" xmlns="http://www.w3.org/2000/svg" xmlns:xlink="http://www.w3.org/1999/xlink">
<g id="graph0" class="graph" transform="scale(1 1) rotate(0) translate(4 184)">
<title>%3</title>
<polygon fill="white" stroke="transparent" points="-4,4 -4,-184 193.49,-184 193.49,4 -4,4"/>
<!-- Biến Độc lập (X) -->
<g id="node1" class="node">
<title>Biến Độc lập (X)</title>
<ellipse fill="none" stroke="black" cx="94.75" cy="-162" rx="71.8" ry="18"/>
<text text-anchor="middle" x="94.75" y="-157.8" font-family="Times,serif" font-size="14.00">Biến Độc lập (X)</text>
</g>
<!-- Biến Hậu Can thiệp (C) -->
<g id="node2" class="node">
<title>Biến Hậu Can thiệp (C)</title>
<ellipse fill="none" stroke="black" cx="94.75" cy="-90" rx="94.99" ry="18"/>
<text text-anchor="middle" x="94.75" y="-85.8" font-family="Times,serif" font-size="14.00">Biến Hậu Can thiệp (C)</text>
</g>
<!-- Biến Độc lập (X)&#45;&gt;Biến Hậu Can thiệp (C) -->
<g id="edge1" class="edge">
<title>Biến Độc lập (X)&#45;&gt;Biến Hậu Can thiệp (C)</title>
<path fill="none" stroke="black" d="M94.75,-143.7C94.75,-135.98 94.75,-126.71 94.75,-118.11"/>
<polygon fill="black" stroke="black" points="98.25,-118.1 94.75,-108.1 91.25,-118.1 98.25,-118.1"/>
</g>
<!-- Biến Phụ thuộc (Y) -->
<g id="node3" class="node">
<title>Biến Phụ thuộc (Y)</title>
<ellipse fill="none" stroke="black" cx="94.75" cy="-18" rx="79.54" ry="18"/>
<text text-anchor="middle" x="94.75" y="-13.8" font-family="Times,serif" font-size="14.00">Biến Phụ thuộc (Y)</text>
</g>
<!-- Biến Hậu Can thiệp (C)&#45;&gt;Biến Phụ thuộc (Y) -->
<g id="edge2" class="edge">
<title>Biến Hậu Can thiệp (C)&#45;&gt;Biến Phụ thuộc (Y)</title>
<path fill="none" stroke="black" d="M94.75,-71.7C94.75,-63.98 94.75,-54.71 94.75,-46.11"/>
<polygon fill="black" stroke="black" points="98.25,-46.1 94.75,-36.1 91.25,-46.1 98.25,-46.1"/>
</g>
</g>
</svg>
