<?xml version="1.0" encoding="UTF-8" standalone="no"?>
<!DOCTYPE svg PUBLIC "-//W3C//DTD SVG 1.1//EN"
 "http://www.w3.org/Graphics/SVG/1.1/DTD/svg11.dtd">
<!-- Generated by graphviz version 2.40.1 (20161225.0304)
 -->
<!-- Title: %3 Pages: 1 -->
<svg width="349pt" height="188pt"
 viewBox="0.00 0.00 348.55 188.00" xmlns="http://www.w3.org/2000/svg" xmlns:xlink="http://www.w3.org/1999/xlink">
<g id="graph0" class="graph" transform="scale(1 1) rotate(0) translate(4 184)">
<title>%3</title>
<polygon fill="#ffffff" stroke="transparent" points="-4,4 -4,-184 344.5461,-184 344.5461,4 -4,4"/>
<!-- W -->
<g id="node1" class="node">
<title>W</title>
<ellipse fill="none" stroke="#000000" cx="69" cy="-162" rx="27" ry="18"/>
<text text-anchor="middle" x="69" y="-158.3" font-family="Times,serif" font-size="14.00" fill="#000000">W</text>
</g>
<!-- T -->
<g id="node2" class="node">
<title>T</title>
<ellipse fill="none" stroke="#000000" cx="27" cy="-90" rx="27" ry="18"/>
<text text-anchor="middle" x="27" y="-86.3" font-family="Times,serif" font-size="14.00" fill="#000000">T</text>
</g>
<!-- W&#45;&gt;T -->
<g id="edge1" class="edge">
<title>W&#45;&gt;T</title>
<path fill="none" stroke="#000000" d="M59.0466,-144.937C53.9729,-136.2393 47.6966,-125.4799 42.047,-115.7948"/>
<polygon fill="#000000" stroke="#000000" points="44.944,-113.8148 36.882,-106.9405 38.8975,-117.3419 44.944,-113.8148"/>
</g>
<!-- Y -->
<g id="node3" class="node">
<title>Y</title>
<ellipse fill="none" stroke="#000000" cx="62" cy="-18" rx="27" ry="18"/>
<text text-anchor="middle" x="62" y="-14.3" font-family="Times,serif" font-size="14.00" fill="#000000">Y</text>
</g>
<!-- W&#45;&gt;Y -->
<g id="edge2" class="edge">
<title>W&#45;&gt;Y</title>
<path fill="none" stroke="#000000" d="M68.1134,-143.7623C66.9195,-119.201 64.7829,-75.2474 63.3783,-46.3541"/>
<polygon fill="#000000" stroke="#000000" points="66.8609,-45.9079 62.8794,-36.0896 59.8691,-46.2478 66.8609,-45.9079"/>
</g>
<!-- T&#45;&gt;Y -->
<g id="edge3" class="edge">
<title>T&#45;&gt;Y</title>
<path fill="none" stroke="#000000" d="M35.4725,-72.5708C39.5997,-64.0807 44.6493,-53.6929 49.2311,-44.2674"/>
<polygon fill="#000000" stroke="#000000" points="52.3813,-45.7926 53.6055,-35.2687 46.0857,-42.7322 52.3813,-45.7926"/>
</g>
<!-- IQ -->
<g id="node4" class="node">
<title>IQ</title>
<ellipse fill="none" stroke="#000000" cx="161" cy="-162" rx="27" ry="18"/>
<text text-anchor="middle" x="161" y="-158.3" font-family="Times,serif" font-size="14.00" fill="#000000">IQ</text>
</g>
<!-- Educ -->
<g id="node5" class="node">
<title>Educ</title>
<ellipse fill="none" stroke="#000000" cx="149" cy="-90" rx="29.4969" ry="18"/>
<text text-anchor="middle" x="149" y="-86.3" font-family="Times,serif" font-size="14.00" fill="#000000">Educ</text>
</g>
<!-- IQ&#45;&gt;Educ -->
<g id="edge4" class="edge">
<title>IQ&#45;&gt;Educ</title>
<path fill="none" stroke="#ff0000" d="M157.9719,-143.8314C156.6687,-136.0125 155.1154,-126.6923 153.6703,-118.0221"/>
<polygon fill="#ff0000" stroke="#ff0000" points="157.082,-117.2019 151.9856,-107.9134 150.1773,-118.3528 157.082,-117.2019"/>
</g>
<!-- Wage -->
<g id="node6" class="node">
<title>Wage</title>
<ellipse fill="none" stroke="#000000" cx="161" cy="-18" rx="31.6951" ry="18"/>
<text text-anchor="middle" x="161" y="-14.3" font-family="Times,serif" font-size="14.00" fill="#000000">Wage</text>
</g>
<!-- IQ&#45;&gt;Wage -->
<g id="edge5" class="edge">
<title>IQ&#45;&gt;Wage</title>
<path fill="none" stroke="#ff0000" d="M171.5082,-145.2168C177.3329,-134.9067 183.9905,-121.1876 187,-108 190.5597,-92.401 190.5597,-87.599 187,-72 184.8471,-62.5658 180.8271,-52.8596 176.5807,-44.324"/>
<polygon fill="#ff0000" stroke="#ff0000" points="179.5531,-42.4582 171.7776,-35.2615 173.368,-45.7363 179.5531,-42.4582"/>
</g>
<!-- Educ&#45;&gt;Wage -->
<g id="edge6" class="edge">
<title>Educ&#45;&gt;Wage</title>
<path fill="none" stroke="#ff0000" d="M152.0281,-71.8314C153.3115,-64.131 154.8376,-54.9743 156.2639,-46.4166"/>
<polygon fill="#ff0000" stroke="#ff0000" points="159.7394,-46.8526 157.9311,-36.4133 152.8347,-45.7018 159.7394,-46.8526"/>
</g>
<!-- Crime -->
<g id="node7" class="node">
<title>Crime</title>
<ellipse fill="none" stroke="#000000" cx="297" cy="-162" rx="33.2948" ry="18"/>
<text text-anchor="middle" x="297" y="-158.3" font-family="Times,serif" font-size="14.00" fill="#000000">Crime</text>
</g>
<!-- Police -->
<g id="node8" class="node">
<title>Police</title>
<ellipse fill="none" stroke="#000000" cx="267" cy="-90" rx="33.2948" ry="18"/>
<text text-anchor="middle" x="267" y="-86.3" font-family="Times,serif" font-size="14.00" fill="#000000">Police</text>
</g>
<!-- Crime&#45;&gt;Police -->
<g id="edge7" class="edge">
<title>Crime&#45;&gt;Police</title>
<path fill="none" stroke="#ff0000" d="M289.5843,-144.2022C286.1693,-136.0064 282.0427,-126.1024 278.2561,-117.0145"/>
<polygon fill="#ff0000" stroke="#ff0000" points="281.4074,-115.4776 274.3304,-107.593 274.9459,-118.17 281.4074,-115.4776"/>
</g>
<!-- Violence -->
<g id="node9" class="node">
<title>Violence</title>
<ellipse fill="none" stroke="#000000" cx="297" cy="-18" rx="43.5923" ry="18"/>
<text text-anchor="middle" x="297" y="-14.3" font-family="Times,serif" font-size="14.00" fill="#000000">Violence</text>
</g>
<!-- Crime&#45;&gt;Violence -->
<g id="edge8" class="edge">
<title>Crime&#45;&gt;Violence</title>
<path fill="none" stroke="#ff0000" d="M301.994,-144.1645C304.6587,-133.7193 307.6587,-120.2193 309,-108 310.7459,-92.0955 310.7459,-87.9045 309,-72 308.0716,-63.5425 306.3486,-54.4715 304.4922,-46.2246"/>
<polygon fill="#ff0000" stroke="#ff0000" points="307.8544,-45.2356 302.1191,-36.3273 301.0473,-46.8678 307.8544,-45.2356"/>
</g>
<!-- Police&#45;&gt;Violence -->
<g id="edge9" class="edge">
<title>Police&#45;&gt;Violence</title>
<path fill="none" stroke="#0000ff" d="M274.4157,-72.2022C277.8052,-64.0675 281.8958,-54.2501 285.6591,-45.2181"/>
<polygon fill="#0000ff" stroke="#0000ff" points="288.9502,-46.4195 289.5656,-35.8425 282.4886,-43.7271 288.9502,-46.4195"/>
</g>
</g>
</svg>
