<?xml version="1.0" encoding="UTF-8" standalone="no"?>
<!DOCTYPE svg PUBLIC "-//W3C//DTD SVG 1.1//EN"
 "http://www.w3.org/Graphics/SVG/1.1/DTD/svg11.dtd">
<!-- Generated by graphviz version 2.40.1 (20161225.0304)
 -->
<!-- Title: %3 Pages: 1 -->
<svg width="299pt" height="116pt"
 viewBox="0.00 0.00 299.04 116.00" xmlns="http://www.w3.org/2000/svg" xmlns:xlink="http://www.w3.org/1999/xlink">
<g id="graph0" class="graph" transform="scale(1 1) rotate(0) translate(4 112)">
<title>%3</title>
<polygon fill="#ffffff" stroke="transparent" points="-4,4 -4,-112 295.0444,-112 295.0444,4 -4,4"/>
<!-- W=w -->
<g id="node1" class="node">
<title>W=w</title>
<ellipse fill="none" stroke="#000000" cx="31.1972" cy="-90" rx="31.3957" ry="18"/>
<text text-anchor="middle" x="31.1972" y="-86.3" font-family="Times,serif" font-size="14.00" fill="#000000">W=w</text>
</g>
<!-- T -->
<g id="node2" class="node">
<title>T</title>
<ellipse fill="none" stroke="#000000" cx="107.1972" cy="-90" rx="27" ry="18"/>
<text text-anchor="middle" x="107.1972" y="-86.3" font-family="Times,serif" font-size="14.00" fill="#000000">T</text>
</g>
<!-- Y -->
<g id="node3" class="node">
<title>Y</title>
<ellipse fill="none" stroke="#000000" cx="107.1972" cy="-18" rx="27" ry="18"/>
<text text-anchor="middle" x="107.1972" y="-14.3" font-family="Times,serif" font-size="14.00" fill="#000000">Y</text>
</g>
<!-- T&#45;&gt;Y -->
<g id="edge1" class="edge">
<title>T&#45;&gt;Y</title>
<path fill="none" stroke="#000000" d="M107.1972,-71.8314C107.1972,-64.131 107.1972,-54.9743 107.1972,-46.4166"/>
<polygon fill="#000000" stroke="#000000" points="110.6973,-46.4132 107.1972,-36.4133 103.6973,-46.4133 110.6973,-46.4132"/>
</g>
<!-- IQ=x -->
<g id="node4" class="node">
<title>IQ=x</title>
<ellipse fill="none" stroke="#000000" cx="182.1972" cy="-90" rx="29.795" ry="18"/>
<text text-anchor="middle" x="182.1972" y="-86.3" font-family="Times,serif" font-size="14.00" fill="#000000">IQ=x</text>
</g>
<!-- Educ -->
<g id="node5" class="node">
<title>Educ</title>
<ellipse fill="none" stroke="#000000" cx="259.1972" cy="-90" rx="29.4969" ry="18"/>
<text text-anchor="middle" x="259.1972" y="-86.3" font-family="Times,serif" font-size="14.00" fill="#000000">Educ</text>
</g>
<!-- Wage -->
<g id="node6" class="node">
<title>Wage</title>
<ellipse fill="none" stroke="#000000" cx="259.1972" cy="-18" rx="31.6951" ry="18"/>
<text text-anchor="middle" x="259.1972" y="-14.3" font-family="Times,serif" font-size="14.00" fill="#000000">Wage</text>
</g>
<!-- Educ&#45;&gt;Wage -->
<g id="edge2" class="edge">
<title>Educ&#45;&gt;Wage</title>
<path fill="none" stroke="#ff0000" d="M259.1972,-71.8314C259.1972,-64.131 259.1972,-54.9743 259.1972,-46.4166"/>
<polygon fill="#ff0000" stroke="#ff0000" points="262.6973,-46.4132 259.1972,-36.4133 255.6973,-46.4133 262.6973,-46.4132"/>
</g>
</g>
</svg>
