<?xml version="1.0" encoding="UTF-8" standalone="no"?>
<!DOCTYPE svg PUBLIC "-//W3C//DTD SVG 1.1//EN"
 "http://www.w3.org/Graphics/SVG/1.1/DTD/svg11.dtd">
<!-- Generated by graphviz version 2.40.1 (20161225.0304)
 -->
<!-- Title: %3 Pages: 1 -->
<svg width="284pt" height="116pt"
 viewBox="0.00 0.00 284.25 116.00" xmlns="http://www.w3.org/2000/svg" xmlns:xlink="http://www.w3.org/1999/xlink">
<g id="graph0" class="graph" transform="scale(1 1) rotate(0) translate(4 112)">
<title>%3</title>
<polygon fill="#ffffff" stroke="transparent" points="-4,4 -4,-112 280.2474,-112 280.2474,4 -4,4"/>
<!-- W -->
<g id="node1" class="node">
<title>W</title>
<ellipse fill="none" stroke="#000000" cx="27" cy="-90" rx="27" ry="18"/>
<text text-anchor="middle" x="27" y="-86.3" font-family="Times,serif" font-size="14.00" fill="#000000">W</text>
</g>
<!-- Y -->
<g id="node2" class="node">
<title>Y</title>
<ellipse fill="none" stroke="#000000" cx="80" cy="-18" rx="27" ry="18"/>
<text text-anchor="middle" x="80" y="-14.3" font-family="Times,serif" font-size="14.00" fill="#000000">Y</text>
</g>
<!-- W&#45;&gt;Y -->
<g id="edge1" class="edge">
<title>W&#45;&gt;Y</title>
<path fill="none" stroke="#000000" d="M39.0265,-73.6621C45.8029,-64.4564 54.4007,-52.7764 61.9687,-42.4953"/>
<polygon fill="#000000" stroke="#000000" points="64.9115,-44.4015 68.0211,-34.2733 59.2742,-40.2518 64.9115,-44.4015"/>
</g>
<!-- T -->
<g id="node3" class="node">
<title>T</title>
<ellipse fill="none" stroke="#000000" cx="99" cy="-90" rx="27" ry="18"/>
<text text-anchor="middle" x="99" y="-86.3" font-family="Times,serif" font-size="14.00" fill="#000000">T</text>
</g>
<!-- T&#45;&gt;Y -->
<g id="edge2" class="edge">
<title>T&#45;&gt;Y</title>
<path fill="none" stroke="#000000" d="M94.3034,-72.2022C92.2024,-64.2406 89.676,-54.6671 87.335,-45.7957"/>
<polygon fill="#000000" stroke="#000000" points="90.6442,-44.6185 84.7084,-35.8425 83.8759,-46.4046 90.6442,-44.6185"/>
</g>
<!-- IQ -->
<g id="node4" class="node">
<title>IQ</title>
<ellipse fill="none" stroke="#000000" cx="173" cy="-90" rx="27" ry="18"/>
<text text-anchor="middle" x="173" y="-86.3" font-family="Times,serif" font-size="14.00" fill="#000000">IQ</text>
</g>
<!-- Wage -->
<g id="node5" class="node">
<title>Wage</title>
<ellipse fill="none" stroke="#000000" cx="191" cy="-18" rx="31.6951" ry="18"/>
<text text-anchor="middle" x="191" y="-14.3" font-family="Times,serif" font-size="14.00" fill="#000000">Wage</text>
</g>
<!-- IQ&#45;&gt;Wage -->
<g id="edge3" class="edge">
<title>IQ&#45;&gt;Wage</title>
<path fill="none" stroke="#ff0000" d="M177.4494,-72.2022C179.4398,-64.2406 181.8332,-54.6671 184.0511,-45.7957"/>
<polygon fill="#ff0000" stroke="#ff0000" points="187.5094,-46.3929 186.5394,-35.8425 180.7184,-44.6951 187.5094,-46.3929"/>
</g>
<!-- Educ -->
<g id="node6" class="node">
<title>Educ</title>
<ellipse fill="none" stroke="#000000" cx="247" cy="-90" rx="29.4969" ry="18"/>
<text text-anchor="middle" x="247" y="-86.3" font-family="Times,serif" font-size="14.00" fill="#000000">Educ</text>
</g>
<!-- Educ&#45;&gt;Wage -->
<g id="edge4" class="edge">
<title>Educ&#45;&gt;Wage</title>
<path fill="none" stroke="#ff0000" d="M234.2927,-73.6621C227.2336,-64.5861 218.3038,-53.1049 210.3904,-42.9306"/>
<polygon fill="#ff0000" stroke="#ff0000" points="212.9478,-40.5176 204.0456,-34.7729 207.4223,-44.8153 212.9478,-40.5176"/>
</g>
</g>
</svg>
