<?xml version="1.0" encoding="UTF-8" standalone="no"?>
<!DOCTYPE svg PUBLIC "-//W3C//DTD SVG 1.1//EN"
 "http://www.w3.org/Graphics/SVG/1.1/DTD/svg11.dtd">
<!-- Generated by graphviz version 2.38.0 (20140413.2041)
 -->
<!-- Title: %3 Pages: 1 -->
<svg width="349pt" height="332pt"
 viewBox="0.00 0.00 349.39 332.00" xmlns="http://www.w3.org/2000/svg" xmlns:xlink="http://www.w3.org/1999/xlink">
<g id="graph0" class="graph" transform="scale(1 1) rotate(0) translate(4 328)">
<title>%3</title>
<polygon fill="white" stroke="none" points="-4,4 -4,-328 345.39,-328 345.39,4 -4,4"/>
<!-- Kết_hôn_1 -->
<g id="node1" class="node"><title>Kết_hôn_1</title>
<ellipse fill="none" stroke="black" cx="159.195" cy="-234" rx="51.1914" ry="18"/>
<text text-anchor="middle" x="159.195" y="-230.3" font-family="Times New Roman,serif" font-size="14.00">Kết_hôn_1</text>
</g>
<!-- Thu_nhập_1 -->
<g id="node2" class="node"><title>Thu_nhập_1</title>
<ellipse fill="none" stroke="black" cx="80.1949" cy="-162" rx="57.3905" ry="18"/>
<text text-anchor="middle" x="80.1949" y="-158.3" font-family="Times New Roman,serif" font-size="14.00">Thu_nhập_1</text>
</g>
<!-- Kết_hôn_1&#45;&gt;Thu_nhập_1 -->
<g id="edge1" class="edge"><title>Kết_hôn_1&#45;&gt;Thu_nhập_1</title>
<path fill="none" stroke="black" d="M141.269,-217.116C130.912,-207.939 117.701,-196.233 106.217,-186.057"/>
<polygon fill="black" stroke="black" points="108.404,-183.319 98.5985,-179.307 103.762,-188.558 108.404,-183.319"/>
</g>
<!-- Kết_hôn_2 -->
<g id="node3" class="node"><title>Kết_hôn_2</title>
<ellipse fill="none" stroke="black" cx="207.195" cy="-162" rx="51.1914" ry="18"/>
<text text-anchor="middle" x="207.195" y="-158.3" font-family="Times New Roman,serif" font-size="14.00">Kết_hôn_2</text>
</g>
<!-- Kết_hôn_1&#45;&gt;Kết_hôn_2 -->
<g id="edge2" class="edge"><title>Kết_hôn_1&#45;&gt;Kết_hôn_2</title>
<path fill="none" stroke="black" d="M170.57,-216.411C176.285,-208.077 183.334,-197.797 189.717,-188.488"/>
<polygon fill="black" stroke="black" points="192.799,-190.183 195.568,-179.956 187.026,-186.224 192.799,-190.183"/>
</g>
<!-- Thu_nhập_2 -->
<g id="node4" class="node"><title>Thu_nhập_2</title>
<ellipse fill="none" stroke="black" cx="57.1949" cy="-90" rx="57.3905" ry="18"/>
<text text-anchor="middle" x="57.1949" y="-86.3" font-family="Times New Roman,serif" font-size="14.00">Thu_nhập_2</text>
</g>
<!-- Kết_hôn_2&#45;&gt;Thu_nhập_2 -->
<g id="edge3" class="edge"><title>Kết_hôn_2&#45;&gt;Thu_nhập_2</title>
<path fill="none" stroke="black" d="M177.56,-147.17C154.544,-136.43 122.4,-121.429 97.1183,-109.631"/>
<polygon fill="black" stroke="black" points="98.3403,-106.339 87.7984,-105.282 95.3801,-112.682 98.3403,-106.339"/>
</g>
<!-- Kết_hôn_3 -->
<g id="node5" class="node"><title>Kết_hôn_3</title>
<ellipse fill="none" stroke="black" cx="245.195" cy="-90" rx="51.1914" ry="18"/>
<text text-anchor="middle" x="245.195" y="-86.3" font-family="Times New Roman,serif" font-size="14.00">Kết_hôn_3</text>
</g>
<!-- Kết_hôn_2&#45;&gt;Kết_hôn_3 -->
<g id="edge4" class="edge"><title>Kết_hôn_2&#45;&gt;Kết_hôn_3</title>
<path fill="none" stroke="black" d="M216.394,-144.055C220.828,-135.887 226.243,-125.912 231.176,-116.824"/>
<polygon fill="black" stroke="black" points="234.386,-118.247 236.081,-107.789 228.234,-114.908 234.386,-118.247"/>
</g>
<!-- Thu_nhập_3 -->
<g id="node6" class="node"><title>Thu_nhập_3</title>
<ellipse fill="none" stroke="black" cx="284.195" cy="-18" rx="57.3905" ry="18"/>
<text text-anchor="middle" x="284.195" y="-14.3" font-family="Times New Roman,serif" font-size="14.00">Thu_nhập_3</text>
</g>
<!-- Kết_hôn_3&#45;&gt;Thu_nhập_3 -->
<g id="edge5" class="edge"><title>Kết_hôn_3&#45;&gt;Thu_nhập_3</title>
<path fill="none" stroke="black" d="M254.636,-72.055C259.235,-63.8006 264.861,-53.7014 269.967,-44.5378"/>
<polygon fill="black" stroke="black" points="273.031,-46.2282 274.841,-35.789 266.916,-42.8212 273.031,-46.2282"/>
</g>
<!-- Đối tượng (Điển trai, Trí tuệ...) -->
<g id="node7" class="node"><title>Đối tượng (Điển trai, Trí tuệ...)</title>
<ellipse fill="none" stroke="black" cx="198.195" cy="-306" rx="124.278" ry="18"/>
<text text-anchor="middle" x="198.195" y="-302.3" font-family="Times New Roman,serif" font-size="14.00">Đối tượng (Điển trai, Trí tuệ...)</text>
</g>
<!-- Đối tượng (Điển trai, Trí tuệ...)&#45;&gt;Kết_hôn_1 -->
<g id="edge6" class="edge"><title>Đối tượng (Điển trai, Trí tuệ...)&#45;&gt;Kết_hôn_1</title>
<path fill="none" stroke="black" d="M188.554,-287.697C184.068,-279.644 178.636,-269.894 173.671,-260.982"/>
<polygon fill="black" stroke="black" points="176.649,-259.137 168.724,-252.104 170.534,-262.544 176.649,-259.137"/>
</g>
<!-- Đối tượng (Điển trai, Trí tuệ...)&#45;&gt;Thu_nhập_1 -->
<g id="edge9" class="edge"><title>Đối tượng (Điển trai, Trí tuệ...)&#45;&gt;Thu_nhập_1</title>
<path fill="none" stroke="black" d="M150.133,-289.328C131.629,-281.002 111.908,-268.906 99.1949,-252 85.8763,-234.29 81.4483,-209.271 80.1669,-190.268"/>
<polygon fill="black" stroke="black" points="83.6583,-189.988 79.7373,-180.145 76.6646,-190.285 83.6583,-189.988"/>
</g>
<!-- Đối tượng (Điển trai, Trí tuệ...)&#45;&gt;Kết_hôn_2 -->
<g id="edge7" class="edge"><title>Đối tượng (Điển trai, Trí tuệ...)&#45;&gt;Kết_hôn_2</title>
<path fill="none" stroke="black" d="M206.913,-287.833C211.569,-277.694 216.819,-264.444 219.195,-252 223.154,-231.261 219.566,-207.558 215.309,-189.831"/>
<polygon fill="black" stroke="black" points="218.693,-188.94 212.776,-180.151 211.921,-190.712 218.693,-188.94"/>
</g>
<!-- Đối tượng (Điển trai, Trí tuệ...)&#45;&gt;Thu_nhập_2 -->
<g id="edge10" class="edge"><title>Đối tượng (Điển trai, Trí tuệ...)&#45;&gt;Thu_nhập_2</title>
<path fill="none" stroke="black" d="M148.551,-289.409C102.043,-271.587 36.4551,-237.227 14.1949,-180 8.39456,-165.088 8.84702,-159.08 14.1949,-144 17.9765,-133.337 24.9192,-123.255 32.1389,-114.804"/>
<polygon fill="black" stroke="black" points="34.8919,-116.98 39.0515,-107.235 29.7232,-112.259 34.8919,-116.98"/>
</g>
<!-- Đối tượng (Điển trai, Trí tuệ...)&#45;&gt;Kết_hôn_3 -->
<g id="edge8" class="edge"><title>Đối tượng (Điển trai, Trí tuệ...)&#45;&gt;Kết_hôn_3</title>
<path fill="none" stroke="black" d="M211.769,-288.106C229.098,-265.232 257.945,-222.382 267.195,-180 270.607,-164.368 270.322,-159.691 267.195,-144 265.403,-135.011 262.058,-125.638 258.507,-117.318"/>
<polygon fill="black" stroke="black" points="261.651,-115.775 254.326,-108.12 255.279,-118.672 261.651,-115.775"/>
</g>
<!-- Đối tượng (Điển trai, Trí tuệ...)&#45;&gt;Thu_nhập_3 -->
<g id="edge11" class="edge"><title>Đối tượng (Điển trai, Trí tuệ...)&#45;&gt;Thu_nhập_3</title>
<path fill="none" stroke="black" d="M223.826,-288.235C236.344,-278.893 250.714,-266.272 260.195,-252 297.297,-196.148 295.289,-174.317 305.195,-108 307.559,-92.1756 308.195,-87.7162 305.195,-72 303.488,-63.0559 300.295,-53.6954 296.906,-45.373"/>
<polygon fill="black" stroke="black" points="300.103,-43.9489 292.913,-36.1671 293.681,-46.7341 300.103,-43.9489"/>
</g>
</g>
</svg>
