<?xml version="1.0" encoding="UTF-8" standalone="no"?>
<!DOCTYPE svg PUBLIC "-//W3C//DTD SVG 1.1//EN"
 "http://www.w3.org/Graphics/SVG/1.1/DTD/svg11.dtd">
<!-- Generated by graphviz version 2.40.1 (20161225.0304)
 -->
<!-- Title: %3 Pages: 1 -->
<svg width="203pt" height="260pt"
 viewBox="0.00 0.00 202.65 260.00" xmlns="http://www.w3.org/2000/svg" xmlns:xlink="http://www.w3.org/1999/xlink">
<g id="graph0" class="graph" transform="scale(1 1) rotate(0) translate(4 256)">
<title>%3</title>
<polygon fill="#ffffff" stroke="transparent" points="-4,4 -4,-256 198.6465,-256 198.6465,4 -4,4"/>
<!-- X -->
<g id="node1" class="node">
<title>X</title>
<ellipse fill="none" stroke="#000000" cx="27" cy="-234" rx="27" ry="18"/>
<text text-anchor="middle" x="27" y="-230.3" font-family="Times,serif" font-size="14.00" fill="#000000">X</text>
</g>
<!-- T -->
<g id="node2" class="node">
<title>T</title>
<ellipse fill="none" stroke="#ffd700" cx="27" cy="-162" rx="27" ry="18"/>
<text text-anchor="middle" x="27" y="-158.3" font-family="Times,serif" font-size="14.00" fill="#000000">T</text>
</g>
<!-- X&#45;&gt;T -->
<g id="edge1" class="edge">
<title>X&#45;&gt;T</title>
<path fill="none" stroke="#000000" d="M27,-215.8314C27,-208.131 27,-198.9743 27,-190.4166"/>
<polygon fill="#000000" stroke="#000000" points="30.5001,-190.4132 27,-180.4133 23.5001,-190.4133 30.5001,-190.4132"/>
</g>
<!-- Y -->
<g id="node3" class="node">
<title>Y</title>
<ellipse fill="none" stroke="#000000" cx="27" cy="-90" rx="27" ry="18"/>
<text text-anchor="middle" x="27" y="-86.3" font-family="Times,serif" font-size="14.00" fill="#000000">Y</text>
</g>
<!-- T&#45;&gt;Y -->
<g id="edge2" class="edge">
<title>T&#45;&gt;Y</title>
<path fill="none" stroke="#000000" d="M27,-143.8314C27,-136.131 27,-126.9743 27,-118.4166"/>
<polygon fill="#000000" stroke="#000000" points="30.5001,-118.4132 27,-108.4133 23.5001,-118.4133 30.5001,-118.4132"/>
</g>
<!-- treatment -->
<g id="node4" class="node">
<title>treatment</title>
<ellipse fill="none" stroke="#ffd700" cx="117" cy="-90" rx="44.6926" ry="18"/>
<text text-anchor="middle" x="117" y="-86.3" font-family="Times,serif" font-size="14.00" fill="#000000">treatment</text>
</g>
<!-- days -->
<g id="node7" class="node">
<title>days</title>
<ellipse fill="none" stroke="#000000" cx="153" cy="-18" rx="27.0966" ry="18"/>
<text text-anchor="middle" x="153" y="-14.3" font-family="Times,serif" font-size="14.00" fill="#000000">days</text>
</g>
<!-- treatment&#45;&gt;days -->
<g id="edge6" class="edge">
<title>treatment&#45;&gt;days</title>
<path fill="none" stroke="#000000" d="M125.8989,-72.2022C130.1022,-63.7955 135.2041,-53.5917 139.8425,-44.3149"/>
<polygon fill="#000000" stroke="#000000" points="143.1097,-45.6068 144.4514,-35.0972 136.8487,-42.4762 143.1097,-45.6068"/>
</g>
<!-- severity -->
<g id="node5" class="node">
<title>severity</title>
<ellipse fill="none" stroke="#000000" cx="155" cy="-234" rx="39.7935" ry="18"/>
<text text-anchor="middle" x="155" y="-230.3" font-family="Times,serif" font-size="14.00" fill="#000000">severity</text>
</g>
<!-- hospital -->
<g id="node6" class="node">
<title>hospital</title>
<ellipse fill="none" stroke="#000000" cx="119" cy="-162" rx="39.7935" ry="18"/>
<text text-anchor="middle" x="119" y="-158.3" font-family="Times,serif" font-size="14.00" fill="#000000">hospital</text>
</g>
<!-- severity&#45;&gt;hospital -->
<g id="edge3" class="edge">
<title>severity&#45;&gt;hospital</title>
<path fill="none" stroke="#000000" d="M146.1011,-216.2022C141.9596,-207.9192 136.9457,-197.8915 132.3624,-188.7248"/>
<polygon fill="#000000" stroke="#000000" points="135.3992,-186.972 127.7965,-179.593 129.1382,-190.1026 135.3992,-186.972"/>
</g>
<!-- severity&#45;&gt;days -->
<g id="edge4" class="edge">
<title>severity&#45;&gt;days</title>
<path fill="none" stroke="#000000" d="M160.3505,-215.6761C163.1417,-205.3023 166.3173,-192.0329 168,-180 174.6504,-132.4442 178.6917,-119.3985 171,-72 169.5437,-63.0258 166.8094,-53.5277 163.9038,-45.0413"/>
<polygon fill="#000000" stroke="#000000" points="167.1896,-43.8355 160.4804,-35.6357 160.6117,-46.2297 167.1896,-43.8355"/>
</g>
<!-- hospital&#45;&gt;treatment -->
<g id="edge5" class="edge">
<title>hospital&#45;&gt;treatment</title>
<path fill="none" stroke="#000000" d="M118.4953,-143.8314C118.2814,-136.131 118.0271,-126.9743 117.7894,-118.4166"/>
<polygon fill="#000000" stroke="#000000" points="121.2879,-118.3122 117.5115,-108.4133 114.2906,-118.5066 121.2879,-118.3122"/>
</g>
</g>
</svg>
