<?xml version="1.0" encoding="UTF-8" standalone="no"?>
<!DOCTYPE svg PUBLIC "-//W3C//DTD SVG 1.1//EN"
 "http://www.w3.org/Graphics/SVG/1.1/DTD/svg11.dtd">
<!-- Generated by graphviz version 2.40.1 (20161225.0304)
 -->
<!-- Title: %3 Pages: 1 -->
<svg width="308pt" height="260pt"
 viewBox="0.00 0.00 308.29 260.00" xmlns="http://www.w3.org/2000/svg" xmlns:xlink="http://www.w3.org/1999/xlink">
<g id="graph0" class="graph" transform="scale(1 1) rotate(0) translate(4 256)">
<title>%3</title>
<polygon fill="#ffffff" stroke="transparent" points="-4,4 -4,-256 304.293,-256 304.293,4 -4,4"/>
<!-- email -->
<g id="node1" class="node">
<title>email</title>
<ellipse fill="none" stroke="#000000" cx="31.1972" cy="-234" rx="31.3957" ry="18"/>
<text text-anchor="middle" x="31.1972" y="-230.3" font-family="Times,serif" font-size="14.00" fill="#000000">email</text>
</g>
<!-- payments -->
<g id="node2" class="node">
<title>payments</title>
<ellipse fill="none" stroke="#000000" cx="173.1972" cy="-18" rx="45.4919" ry="18"/>
<text text-anchor="middle" x="173.1972" y="-14.3" font-family="Times,serif" font-size="14.00" fill="#000000">payments</text>
</g>
<!-- email&#45;&gt;payments -->
<g id="edge1" class="edge">
<title>email&#45;&gt;payments</title>
<path fill="none" stroke="#000000" d="M26.2459,-216.2032C18.4489,-184.0935 7.18,-115.7482 38.1972,-72 56.8079,-45.7506 90.3563,-32.2535 119.3522,-25.3173"/>
<polygon fill="#000000" stroke="#000000" points="120.3629,-28.6792 129.3866,-23.1274 118.8702,-21.8402 120.3629,-28.6792"/>
</g>
<!-- opened -->
<g id="node3" class="node">
<title>opened</title>
<ellipse fill="none" stroke="#000000" cx="134.1972" cy="-162" rx="37.0935" ry="18"/>
<text text-anchor="middle" x="134.1972" y="-158.3" font-family="Times,serif" font-size="14.00" fill="#000000">opened</text>
</g>
<!-- email&#45;&gt;opened -->
<g id="edge2" class="edge">
<title>email&#45;&gt;opened</title>
<path fill="none" stroke="#000000" d="M51.0567,-220.1177C66.19,-209.539 87.2747,-194.8002 104.4237,-182.8125"/>
<polygon fill="#000000" stroke="#000000" points="106.7896,-185.4291 112.9805,-176.8311 102.7791,-179.6918 106.7896,-185.4291"/>
</g>
<!-- agreement -->
<g id="node4" class="node">
<title>agreement</title>
<ellipse fill="none" stroke="#000000" cx="96.1972" cy="-90" rx="48.9926" ry="18"/>
<text text-anchor="middle" x="96.1972" y="-86.3" font-family="Times,serif" font-size="14.00" fill="#000000">agreement</text>
</g>
<!-- email&#45;&gt;agreement -->
<g id="edge3" class="edge">
<title>email&#45;&gt;agreement</title>
<path fill="none" stroke="#000000" d="M39.1675,-216.3428C50.3757,-191.5122 70.8896,-146.066 84.0171,-116.9836"/>
<polygon fill="#000000" stroke="#000000" points="87.2376,-118.3561 88.1618,-107.8017 80.8575,-115.4762 87.2376,-118.3561"/>
</g>
<!-- opened&#45;&gt;payments -->
<g id="edge4" class="edge">
<title>opened&#45;&gt;payments</title>
<path fill="none" stroke="#000000" d="M141.5322,-144.22C145.6438,-133.7934 150.6438,-120.2934 154.1972,-108 160.1006,-87.5768 165.0022,-64.0567 168.3475,-46.1834"/>
<polygon fill="#000000" stroke="#000000" points="171.8316,-46.5862 170.1787,-36.1211 164.9448,-45.3329 171.8316,-46.5862"/>
</g>
<!-- opened&#45;&gt;agreement -->
<g id="edge5" class="edge">
<title>opened&#45;&gt;agreement</title>
<path fill="none" stroke="#000000" d="M124.804,-144.2022C120.465,-135.981 115.2189,-126.041 110.4104,-116.9301"/>
<polygon fill="#000000" stroke="#000000" points="113.3771,-115.0527 105.6141,-107.8425 107.1864,-118.3201 113.3771,-115.0527"/>
</g>
<!-- agreement&#45;&gt;payments -->
<g id="edge6" class="edge">
<title>agreement&#45;&gt;payments</title>
<path fill="none" stroke="#000000" d="M114.4452,-72.937C124.3938,-63.6344 136.8646,-51.9733 147.7545,-41.7906"/>
<polygon fill="#000000" stroke="#000000" points="150.4321,-44.0786 155.3459,-34.6921 145.6512,-38.9656 150.4321,-44.0786"/>
</g>
<!-- credit_limit -->
<g id="node5" class="node">
<title>credit_limit</title>
<ellipse fill="none" stroke="#000000" cx="133.1972" cy="-234" rx="53.0913" ry="18"/>
<text text-anchor="middle" x="133.1972" y="-230.3" font-family="Times,serif" font-size="14.00" fill="#000000">credit_limit</text>
</g>
<!-- credit_limit&#45;&gt;payments -->
<g id="edge7" class="edge">
<title>credit_limit&#45;&gt;payments</title>
<path fill="none" stroke="#000000" d="M153.49,-217.2474C163.5996,-207.5544 174.7955,-194.4339 180.1972,-180 196.8465,-135.5114 188.5064,-79.2886 180.8862,-46.1288"/>
<polygon fill="#000000" stroke="#000000" points="184.2388,-45.1036 178.47,-36.2171 177.438,-46.7616 184.2388,-45.1036"/>
</g>
<!-- credit_limit&#45;&gt;opened -->
<g id="edge8" class="edge">
<title>credit_limit&#45;&gt;opened</title>
<path fill="none" stroke="#000000" d="M133.4496,-215.8314C133.5565,-208.131 133.6837,-198.9743 133.8026,-190.4166"/>
<polygon fill="#000000" stroke="#000000" points="137.3022,-190.4609 133.9415,-180.4133 130.3029,-190.3637 137.3022,-190.4609"/>
</g>
<!-- credit_limit&#45;&gt;agreement -->
<g id="edge9" class="edge">
<title>credit_limit&#45;&gt;agreement</title>
<path fill="none" stroke="#000000" d="M113.7517,-217.0836C104.0675,-207.3426 93.3487,-194.2285 88.1972,-180 80.9766,-160.0563 83.6154,-136.0725 87.7129,-117.8802"/>
<polygon fill="#000000" stroke="#000000" points="91.1095,-118.7246 90.1579,-108.1726 84.3214,-117.0149 91.1095,-118.7246"/>
</g>
<!-- risk_score -->
<g id="node6" class="node">
<title>risk_score</title>
<ellipse fill="none" stroke="#000000" cx="252.1972" cy="-234" rx="48.1917" ry="18"/>
<text text-anchor="middle" x="252.1972" y="-230.3" font-family="Times,serif" font-size="14.00" fill="#000000">risk_score</text>
</g>
<!-- risk_score&#45;&gt;payments -->
<g id="edge10" class="edge">
<title>risk_score&#45;&gt;payments</title>
<path fill="none" stroke="#000000" d="M247.7644,-215.616C240.1435,-185.1405 223.3201,-122.5085 202.1972,-72 198.3379,-62.7716 193.4028,-53.0397 188.7022,-44.4182"/>
<polygon fill="#000000" stroke="#000000" points="191.6922,-42.594 183.7558,-35.5753 185.583,-46.0113 191.6922,-42.594"/>
</g>
<!-- risk_score&#45;&gt;opened -->
<g id="edge11" class="edge">
<title>risk_score&#45;&gt;opened</title>
<path fill="none" stroke="#000000" d="M226.8833,-218.5542C209.1112,-207.7102 185.2066,-193.1243 166.1254,-181.4816"/>
<polygon fill="#000000" stroke="#000000" points="167.8257,-178.419 157.4662,-176.198 164.1796,-184.3945 167.8257,-178.419"/>
</g>
<!-- risk_score&#45;&gt;agreement -->
<g id="edge12" class="edge">
<title>risk_score&#45;&gt;agreement</title>
<path fill="none" stroke="#000000" d="M240.6672,-216.3489C227.5406,-197.1054 204.7184,-166.1082 180.1972,-144 165.9893,-131.1901 148.4233,-119.3906 133.0338,-110.1104"/>
<polygon fill="#000000" stroke="#000000" points="134.6593,-107.0059 124.266,-104.9489 131.1081,-113.0383 134.6593,-107.0059"/>
</g>
</g>
</svg>
