<?xml version="1.0" encoding="UTF-8" standalone="no"?>
<!DOCTYPE svg PUBLIC "-//W3C//DTD SVG 1.1//EN"
 "http://www.w3.org/Graphics/SVG/1.1/DTD/svg11.dtd">
<!-- Generated by graphviz version 2.40.1 (20161225.0304)
 -->
<!-- Title: %3 Pages: 1 -->
<svg width="452pt" height="116pt"
 viewBox="0.00 0.00 452.10 116.00" xmlns="http://www.w3.org/2000/svg" xmlns:xlink="http://www.w3.org/1999/xlink">
<g id="graph0" class="graph" transform="scale(1 1) rotate(0) translate(4 112)">
<title>%3</title>
<polygon fill="#ffffff" stroke="transparent" points="-4,4 -4,-112 448.0957,-112 448.0957,4 -4,4"/>
<!-- X -->
<g id="node1" class="node">
<title>X</title>
<ellipse fill="none" stroke="#000000" cx="27" cy="-90" rx="27" ry="18"/>
<text text-anchor="middle" x="27" y="-86.3" font-family="Times,serif" font-size="14.00" fill="#000000">X</text>
</g>
<!-- Y -->
<g id="node2" class="node">
<title>Y</title>
<ellipse fill="none" stroke="#000000" cx="63" cy="-18" rx="27" ry="18"/>
<text text-anchor="middle" x="63" y="-14.3" font-family="Times,serif" font-size="14.00" fill="#000000">Y</text>
</g>
<!-- X&#45;&gt;Y -->
<g id="edge1" class="edge">
<title>X&#45;&gt;Y</title>
<path fill="none" stroke="#000000" d="M35.7146,-72.5708C39.9597,-64.0807 45.1536,-53.6929 49.8663,-44.2674"/>
<polygon fill="#000000" stroke="#000000" points="53.024,-45.7782 54.3657,-35.2687 46.763,-42.6477 53.024,-45.7782"/>
</g>
<!-- T -->
<g id="node3" class="node">
<title>T</title>
<ellipse fill="none" stroke="#ffd700" cx="99" cy="-90" rx="27" ry="18"/>
<text text-anchor="middle" x="99" y="-86.3" font-family="Times,serif" font-size="14.00" fill="#000000">T</text>
</g>
<!-- T&#45;&gt;Y -->
<g id="edge2" class="edge">
<title>T&#45;&gt;Y</title>
<path fill="none" stroke="#000000" d="M90.2854,-72.5708C86.0403,-64.0807 80.8464,-53.6929 76.1337,-44.2674"/>
<polygon fill="#000000" stroke="#000000" points="79.237,-42.6477 71.6343,-35.2687 72.976,-45.7782 79.237,-42.6477"/>
</g>
<!-- email -->
<g id="node4" class="node">
<title>email</title>
<ellipse fill="none" stroke="#ffd700" cx="175" cy="-90" rx="31.3957" ry="18"/>
<text text-anchor="middle" x="175" y="-86.3" font-family="Times,serif" font-size="14.00" fill="#000000">email</text>
</g>
<!-- payments -->
<g id="node6" class="node">
<title>payments</title>
<ellipse fill="none" stroke="#000000" cx="277" cy="-18" rx="45.4919" ry="18"/>
<text text-anchor="middle" x="277" y="-14.3" font-family="Times,serif" font-size="14.00" fill="#000000">payments</text>
</g>
<!-- email&#45;&gt;payments -->
<g id="edge5" class="edge">
<title>email&#45;&gt;payments</title>
<path fill="none" stroke="#000000" d="M195.1519,-75.7751C209.6874,-65.5148 229.5779,-51.4744 246.1109,-39.8041"/>
<polygon fill="#000000" stroke="#000000" points="248.2531,-42.5761 254.4044,-33.9498 244.2163,-36.8573 248.2531,-42.5761"/>
</g>
<!-- credit_limit -->
<g id="node5" class="node">
<title>credit_limit</title>
<ellipse fill="none" stroke="#000000" cx="277" cy="-90" rx="53.0913" ry="18"/>
<text text-anchor="middle" x="277" y="-86.3" font-family="Times,serif" font-size="14.00" fill="#000000">credit_limit</text>
</g>
<!-- credit_limit&#45;&gt;payments -->
<g id="edge3" class="edge">
<title>credit_limit&#45;&gt;payments</title>
<path fill="none" stroke="#000000" d="M277,-71.8314C277,-64.131 277,-54.9743 277,-46.4166"/>
<polygon fill="#000000" stroke="#000000" points="280.5001,-46.4132 277,-36.4133 273.5001,-46.4133 280.5001,-46.4132"/>
</g>
<!-- risk_score -->
<g id="node7" class="node">
<title>risk_score</title>
<ellipse fill="none" stroke="#000000" cx="396" cy="-90" rx="48.1917" ry="18"/>
<text text-anchor="middle" x="396" y="-86.3" font-family="Times,serif" font-size="14.00" fill="#000000">risk_score</text>
</g>
<!-- risk_score&#45;&gt;payments -->
<g id="edge4" class="edge">
<title>risk_score&#45;&gt;payments</title>
<path fill="none" stroke="#000000" d="M370.4715,-74.5542C353.0205,-63.9956 329.7061,-49.8894 310.7279,-38.4068"/>
<polygon fill="#000000" stroke="#000000" points="312.4455,-35.3553 302.0778,-33.1731 308.8218,-41.3444 312.4455,-35.3553"/>
</g>
</g>
</svg>
