<?xml version="1.0" encoding="UTF-8" standalone="no"?>
<!DOCTYPE svg PUBLIC "-//W3C//DTD SVG 1.1//EN"
 "http://www.w3.org/Graphics/SVG/1.1/DTD/svg11.dtd">
<!-- Generated by graphviz version 2.38.0 (20140413.2041)
 -->
<!-- Title: %3 Pages: 1 -->
<svg width="128pt" height="188pt"
 viewBox="0.00 0.00 128.14 188.00" xmlns="http://www.w3.org/2000/svg" xmlns:xlink="http://www.w3.org/1999/xlink">
<g id="graph0" class="graph" transform="scale(1 1) rotate(0) translate(4 184)">
<title>%3</title>
<polygon fill="white" stroke="none" points="-4,4 -4,-184 124.142,-184 124.142,4 -4,4"/>
<!-- Năng lực -->
<g id="node1" class="node"><title>Năng lực</title>
<ellipse fill="none" stroke="black" cx="76.5963" cy="-162" rx="43.5923" ry="18"/>
<text text-anchor="middle" x="76.5963" y="-158.3" font-family="Times New Roman,serif" font-size="14.00">Năng lực</text>
</g>
<!-- Học vấn -->
<g id="node2" class="node"><title>Học vấn</title>
<ellipse fill="none" stroke="black" cx="41.5963" cy="-90" rx="41.6928" ry="18"/>
<text text-anchor="middle" x="41.5963" y="-86.3" font-family="Times New Roman,serif" font-size="14.00">Học vấn</text>
</g>
<!-- Năng lực&#45;&gt;Học vấn -->
<g id="edge1" class="edge"><title>Năng lực&#45;&gt;Học vấn</title>
<path fill="none" stroke="black" d="M68.1238,-144.055C64.0396,-135.887 59.0521,-125.912 54.5085,-116.824"/>
<polygon fill="black" stroke="black" points="57.5935,-115.168 49.9908,-107.789 51.3325,-118.299 57.5935,-115.168"/>
</g>
<!-- Lương -->
<g id="node3" class="node"><title>Lương</title>
<ellipse fill="none" stroke="black" cx="76.5963" cy="-18" rx="34.394" ry="18"/>
<text text-anchor="middle" x="76.5963" y="-14.3" font-family="Times New Roman,serif" font-size="14.00">Lương</text>
</g>
<!-- Năng lực&#45;&gt;Lương -->
<g id="edge2" class="edge"><title>Năng lực&#45;&gt;Lương</title>
<path fill="none" stroke="black" d="M83.0824,-144.104C86.6737,-133.835 90.7712,-120.361 92.5963,-108 94.9334,-92.1716 94.9334,-87.8284 92.5963,-72 91.2988,-63.2121 88.8527,-53.8616 86.2565,-45.5001"/>
<polygon fill="black" stroke="black" points="89.5436,-44.2923 83.0824,-35.8957 82.8972,-46.4889 89.5436,-44.2923"/>
</g>
<!-- Học vấn&#45;&gt;Lương -->
<g id="edge3" class="edge"><title>Học vấn&#45;&gt;Lương</title>
<path fill="none" stroke="black" d="M50.0688,-72.055C54.153,-63.8866 59.1405,-53.9116 63.6841,-44.8244"/>
<polygon fill="black" stroke="black" points="66.8601,-46.2985 68.2018,-35.789 60.5991,-43.168 66.8601,-46.2985"/>
</g>
</g>
</svg>
