<?xml version="1.0" encoding="UTF-8" standalone="no"?>
<!DOCTYPE svg PUBLIC "-//W3C//DTD SVG 1.1//EN"
 "http://www.w3.org/Graphics/SVG/1.1/DTD/svg11.dtd">
<!-- Generated by graphviz version 2.38.0 (20140413.2041)
 -->
<!-- Title: %3 Pages: 1 -->
<svg width="270pt" height="188pt"
 viewBox="0.00 0.00 269.54 188.00" xmlns="http://www.w3.org/2000/svg" xmlns:xlink="http://www.w3.org/1999/xlink">
<g id="graph0" class="graph" transform="scale(1 1) rotate(0) translate(4 184)">
<title>%3</title>
<polygon fill="white" stroke="none" points="-4,4 -4,-184 265.539,-184 265.539,4 -4,4"/>
<!-- Năng lực -->
<g id="node1" class="node"><title>Năng lực</title>
<ellipse fill="none" stroke="black" cx="217.993" cy="-162" rx="43.5923" ry="18"/>
<text text-anchor="middle" x="217.993" y="-158.3" font-family="Times New Roman,serif" font-size="14.00">Năng lực</text>
</g>
<!-- Giáo dục -->
<g id="node2" class="node"><title>Giáo dục</title>
<ellipse fill="none" stroke="black" cx="145.993" cy="-90" rx="44.393" ry="18"/>
<text text-anchor="middle" x="145.993" y="-86.3" font-family="Times New Roman,serif" font-size="14.00">Giáo dục</text>
</g>
<!-- Năng lực&#45;&gt;Giáo dục -->
<g id="edge1" class="edge"><title>Năng lực&#45;&gt;Giáo dục</title>
<path fill="none" stroke="black" d="M201.655,-145.116C192.173,-135.897 180.066,-124.127 169.567,-113.919"/>
<polygon fill="black" stroke="black" points="171.876,-111.283 162.266,-106.821 166.997,-116.302 171.876,-111.283"/>
</g>
<!-- Lương -->
<g id="node3" class="node"><title>Lương</title>
<ellipse fill="none" stroke="black" cx="181.993" cy="-18" rx="34.394" ry="18"/>
<text text-anchor="middle" x="181.993" y="-14.3" font-family="Times New Roman,serif" font-size="14.00">Lương</text>
</g>
<!-- Năng lực&#45;&gt;Lương -->
<g id="edge2" class="edge"><title>Năng lực&#45;&gt;Lương</title>
<path fill="none" stroke="black" d="M214.854,-143.817C211.44,-125.803 205.582,-96.7327 198.993,-72 196.694,-63.3701 193.839,-54.0635 191.13,-45.6936"/>
<polygon fill="black" stroke="black" points="194.406,-44.453 187.944,-36.0572 187.76,-46.6504 194.406,-44.453"/>
</g>
<!-- Giáo dục&#45;&gt;Lương -->
<g id="edge3" class="edge"><title>Giáo dục&#45;&gt;Lương</title>
<path fill="none" stroke="black" d="M154.708,-72.055C158.909,-63.8866 164.039,-53.9116 168.712,-44.8244"/>
<polygon fill="black" stroke="black" points="171.898,-46.2826 173.359,-35.789 165.673,-43.0812 171.898,-46.2826"/>
</g>
<!-- Quý của ngày sinh -->
<g id="node4" class="node"><title>Quý của ngày sinh</title>
<ellipse fill="none" stroke="black" cx="77.9931" cy="-162" rx="77.9862" ry="18"/>
<text text-anchor="middle" x="77.9931" y="-158.3" font-family="Times New Roman,serif" font-size="14.00">Quý của ngày sinh</text>
</g>
<!-- Quý của ngày sinh&#45;&gt;Giáo dục -->
<g id="edge4" class="edge"><title>Quý của ngày sinh&#45;&gt;Giáo dục</title>
<path fill="none" stroke="black" d="M94.454,-144.055C103.014,-135.243 113.617,-124.328 122.976,-114.694"/>
<polygon fill="black" stroke="black" points="125.695,-116.919 130.152,-107.307 120.674,-112.041 125.695,-116.919"/>
</g>
</g>
</svg>
