<?xml version="1.0" encoding="UTF-8" standalone="no"?>
<!DOCTYPE svg PUBLIC "-//W3C//DTD SVG 1.1//EN"
 "http://www.w3.org/Graphics/SVG/1.1/DTD/svg11.dtd">
<!-- Generated by graphviz version 2.38.0 (20140413.2041)
 -->
<!-- Title: %3 Pages: 1 -->
<svg width="230pt" height="188pt"
 viewBox="0.00 0.00 230.04 188.00" xmlns="http://www.w3.org/2000/svg" xmlns:xlink="http://www.w3.org/1999/xlink">
<g id="graph0" class="graph" transform="scale(1 1) rotate(0) translate(4 184)">
<title>%3</title>
<polygon fill="white" stroke="none" points="-4,4 -4,-184 226.041,-184 226.041,4 -4,4"/>
<!-- Năng lực -->
<g id="node1" class="node"><title>Năng lực</title>
<ellipse fill="none" stroke="black" cx="178.495" cy="-162" rx="43.5923" ry="18"/>
<text text-anchor="middle" x="178.495" y="-158.3" font-family="Times New Roman,serif" font-size="14.00">Năng lực</text>
</g>
<!-- Học vấn -->
<g id="node2" class="node"><title>Học vấn</title>
<ellipse fill="none" stroke="black" cx="108.495" cy="-90" rx="41.6928" ry="18"/>
<text text-anchor="middle" x="108.495" y="-86.3" font-family="Times New Roman,serif" font-size="14.00">Học vấn</text>
</g>
<!-- Năng lực&#45;&gt;Học vấn -->
<g id="edge1" class="edge"><title>Năng lực&#45;&gt;Học vấn</title>
<path fill="none" stroke="black" d="M162.611,-145.116C153.392,-135.897 141.622,-124.127 131.414,-113.919"/>
<polygon fill="black" stroke="black" points="133.862,-111.417 124.316,-106.821 128.912,-116.367 133.862,-111.417"/>
</g>
<!-- Lương -->
<g id="node3" class="node"><title>Lương</title>
<ellipse fill="none" stroke="black" cx="143.495" cy="-18" rx="34.394" ry="18"/>
<text text-anchor="middle" x="143.495" y="-14.3" font-family="Times New Roman,serif" font-size="14.00">Lương</text>
</g>
<!-- Năng lực&#45;&gt;Lương -->
<g id="edge2" class="edge"><title>Năng lực&#45;&gt;Lương</title>
<path fill="none" stroke="black" d="M175.27,-143.84C171.786,-125.844 165.871,-96.7884 159.495,-72 157.282,-63.3969 154.581,-54.0977 152.034,-45.7264"/>
<polygon fill="black" stroke="black" points="155.349,-44.5999 149.045,-36.0845 148.663,-46.6725 155.349,-44.5999"/>
</g>
<!-- Học vấn&#45;&gt;Lương -->
<g id="edge3" class="edge"><title>Học vấn&#45;&gt;Lương</title>
<path fill="none" stroke="black" d="M116.967,-72.055C121.051,-63.8866 126.039,-53.9116 130.583,-44.8244"/>
<polygon fill="black" stroke="black" points="133.759,-46.2985 135.1,-35.789 127.498,-43.168 133.759,-46.2985"/>
</g>
<!-- Biến công cụ -->
<g id="node4" class="node"><title>Biến công cụ</title>
<ellipse fill="none" stroke="black" cx="58.4948" cy="-162" rx="58.4896" ry="18"/>
<text text-anchor="middle" x="58.4948" y="-158.3" font-family="Times New Roman,serif" font-size="14.00">Biến công cụ</text>
</g>
<!-- Biến công cụ&#45;&gt;Học vấn -->
<g id="edge4" class="edge"><title>Biến công cụ&#45;&gt;Học vấn</title>
<path fill="none" stroke="black" d="M70.5984,-144.055C76.7057,-135.505 84.227,-124.975 90.9548,-115.556"/>
<polygon fill="black" stroke="black" points="93.8826,-117.479 96.847,-107.307 88.1865,-113.41 93.8826,-117.479"/>
</g>
</g>
</svg>
