<?xml version="1.0" encoding="UTF-8" standalone="no"?>
<!DOCTYPE svg PUBLIC "-//W3C//DTD SVG 1.1//EN"
 "http://www.w3.org/Graphics/SVG/1.1/DTD/svg11.dtd">
<!-- Generated by graphviz version 2.42.3 (20191010.1750)
 -->
<!-- Title: %3 Pages: 1 -->
<svg width="236pt" height="203pt"
 viewBox="0.00 0.00 235.98 203.00" xmlns="http://www.w3.org/2000/svg" xmlns:xlink="http://www.w3.org/1999/xlink">
<g id="graph0" class="graph" transform="scale(1 1) rotate(0) translate(4 199)">
<title>%3</title>
<polygon fill="white" stroke="transparent" points="-4,4 -4,-199 231.98,-199 231.98,4 -4,4"/>
<!-- Tiếp nhận Can thiệp -->
<g id="node1" class="node">
<title>Tiếp nhận Can thiệp</title>
<ellipse fill="none" stroke="black" cx="82.4" cy="-104" rx="82.3" ry="18"/>
<text text-anchor="middle" x="82.4" y="-99.8" font-family="Times,serif" font-size="14.00">Tiếp nhận Can thiệp</text>
</g>
<!-- Kết quả (Y) -->
<g id="node2" class="node">
<title>Kết quả (Y)</title>
<ellipse fill="none" stroke="black" cx="141.4" cy="-18" rx="52.97" ry="18"/>
<text text-anchor="middle" x="141.4" y="-13.8" font-family="Times,serif" font-size="14.00">Kết quả (Y)</text>
</g>
<!-- Tiếp nhận Can thiệp&#45;&gt;Kết quả (Y) -->
<g id="edge1" class="edge">
<title>Tiếp nhận Can thiệp&#45;&gt;Kết quả (Y)</title>
<path fill="none" stroke="black" d="M94.34,-86C102.79,-73.97 114.27,-57.63 123.77,-44.1"/>
<polygon fill="black" stroke="black" points="126.8,-45.88 129.68,-35.69 121.07,-41.86 126.8,-45.88"/>
<text text-anchor="middle" x="144.42" y="-56.8" font-family="Times,serif" font-size="14.00">Cửa trước</text>
</g>
<!-- Thời gian (T) -->
<g id="node3" class="node">
<title>Thời gian (T)</title>
<ellipse fill="none" stroke="black" cx="141.4" cy="-177" rx="58.89" ry="18"/>
<text text-anchor="middle" x="141.4" y="-172.8" font-family="Times,serif" font-size="14.00">Thời gian (T)</text>
</g>
<!-- Thời gian (T)&#45;&gt;Tiếp nhận Can thiệp -->
<g id="edge2" class="edge">
<title>Thời gian (T)&#45;&gt;Tiếp nhận Can thiệp</title>
<path fill="none" stroke="black" d="M127.42,-159.17C120.18,-150.46 111.19,-139.65 103.16,-129.98"/>
<polygon fill="black" stroke="black" points="105.78,-127.65 96.69,-122.2 100.39,-132.13 105.78,-127.65"/>
</g>
<!-- Thời gian (T)&#45;&gt;Kết quả (Y) -->
<g id="edge3" class="edge">
<title>Thời gian (T)&#45;&gt;Kết quả (Y)</title>
<path fill="none" stroke="black" d="M154.26,-158.98C161.22,-148.81 169.22,-135.31 173.4,-122 182.48,-93.12 189.18,-81.89 177.4,-54 175.6,-49.73 172.99,-45.72 169.99,-42.05"/>
<polygon fill="black" stroke="black" points="172.36,-39.47 162.95,-34.59 167.27,-44.27 172.36,-39.47"/>
<text text-anchor="middle" x="205.19" y="-99.8" font-family="Times,serif" font-size="14.00">Cửa sau</text>
</g>
</g>
</svg>
