<?xml version="1.0" encoding="UTF-8" standalone="no"?>
<!DOCTYPE svg PUBLIC "-//W3C//DTD SVG 1.1//EN"
 "http://www.w3.org/Graphics/SVG/1.1/DTD/svg11.dtd">
<!-- Generated by graphviz version 2.42.3 (20191010.1750)
 -->
<!-- Title: %3 Pages: 1 -->
<svg width="353pt" height="203pt"
 viewBox="0.00 0.00 352.86 203.00" xmlns="http://www.w3.org/2000/svg" xmlns:xlink="http://www.w3.org/1999/xlink">
<g id="graph0" class="graph" transform="scale(1 1) rotate(0) translate(4 199)">
<title>%3</title>
<polygon fill="white" stroke="transparent" points="-4,4 -4,-199 348.86,-199 348.86,4 -4,4"/>
<!-- Tiếp nhận Can thiệp -->
<g id="node1" class="node">
<title>Tiếp nhận Can thiệp</title>
<ellipse fill="none" stroke="black" cx="176.69" cy="-104" rx="82.3" ry="18"/>
<text text-anchor="middle" x="176.69" y="-99.8" font-family="Times,serif" font-size="14.00">Tiếp nhận Can thiệp</text>
</g>
<!-- Kết quả (Y) -->
<g id="node2" class="node">
<title>Kết quả (Y)</title>
<ellipse fill="none" stroke="black" cx="176.69" cy="-18" rx="52.97" ry="18"/>
<text text-anchor="middle" x="176.69" y="-13.8" font-family="Times,serif" font-size="14.00">Kết quả (Y)</text>
</g>
<!-- Tiếp nhận Can thiệp&#45;&gt;Kết quả (Y) -->
<g id="edge1" class="edge">
<title>Tiếp nhận Can thiệp&#45;&gt;Kết quả (Y)</title>
<path fill="none" stroke="black" d="M176.69,-85.6C176.69,-74.26 176.69,-59.23 176.69,-46.32"/>
<polygon fill="black" stroke="black" points="180.19,-46.1 176.69,-36.1 173.19,-46.1 180.19,-46.1"/>
<text text-anchor="middle" x="205.71" y="-56.8" font-family="Times,serif" font-size="14.00">Cửa trước</text>
</g>
<!-- Thời gian (T) -->
<g id="node3" class="node">
<title>Thời gian (T)</title>
<ellipse fill="none" stroke="black" cx="58.69" cy="-177" rx="58.89" ry="18"/>
<text text-anchor="middle" x="58.69" y="-172.8" font-family="Times,serif" font-size="14.00">Thời gian (T)</text>
</g>
<!-- Thời gian (T)&#45;&gt;Tiếp nhận Can thiệp -->
<g id="edge2" class="edge">
<title>Thời gian (T)&#45;&gt;Tiếp nhận Can thiệp</title>
<path fill="none" stroke="black" d="M84.3,-160.59C100.96,-150.57 122.91,-137.36 141.24,-126.33"/>
<polygon fill="black" stroke="black" points="143.15,-129.27 149.91,-121.12 139.54,-123.27 143.15,-129.27"/>
</g>
<!-- Thời gian (T)&#45;&gt;Kết quả (Y) -->
<g id="edge3" class="edge">
<title>Thời gian (T)&#45;&gt;Kết quả (Y)</title>
<path fill="none" stroke="black" d="M48.41,-159.13C38.22,-140.02 26.03,-108.61 40.12,-86 58.07,-57.2 92.4,-40.44 122.15,-30.88"/>
<polygon fill="black" stroke="black" points="123.46,-34.14 132.03,-27.9 121.45,-27.43 123.46,-34.14"/>
<text text-anchor="middle" x="63.48" y="-99.8" font-family="Times,serif" font-size="14.00">Cửa sau</text>
</g>
<!-- Chỉ định Can thiệp -->
<g id="node4" class="node">
<title>Chỉ định Can thiệp</title>
<ellipse fill="none" stroke="black" cx="267.69" cy="-177" rx="77.33" ry="18"/>
<text text-anchor="middle" x="267.69" y="-172.8" font-family="Times,serif" font-size="14.00">Chỉ định Can thiệp</text>
</g>
<!-- Chỉ định Can thiệp&#45;&gt;Tiếp nhận Can thiệp -->
<g id="edge4" class="edge">
<title>Chỉ định Can thiệp&#45;&gt;Tiếp nhận Can thiệp</title>
<path fill="none" stroke="black" d="M246.59,-159.53C234.5,-150.1 219.15,-138.13 205.92,-127.8"/>
<polygon fill="black" stroke="black" points="208.04,-125.02 198,-121.62 203.73,-130.53 208.04,-125.02"/>
</g>
<!-- Chỉ định Can thiệp&#45;&gt;Kết quả (Y) -->
<g id="edge5" class="edge">
<title>Chỉ định Can thiệp&#45;&gt;Kết quả (Y)</title>
<path fill="none" stroke="black" d="M271.27,-158.75C274.32,-140.12 276.92,-109.91 267.69,-86 259.22,-64.04 238.7,-47.94 219.28,-37.04"/>
<polygon fill="black" stroke="black" points="220.67,-33.82 210.19,-32.25 217.41,-40.01 220.67,-33.82"/>
<text text-anchor="middle" x="296.48" y="-99.8" font-family="Times,serif" font-size="14.00">Cửa sau</text>
</g>
</g>
</svg>
