<?xml version="1.0" encoding="UTF-8" standalone="no"?>
<!DOCTYPE svg PUBLIC "-//W3C//DTD SVG 1.1//EN"
 "http://www.w3.org/Graphics/SVG/1.1/DTD/svg11.dtd">
<!-- Generated by graphviz version 2.40.1 (20161225.0304)
 -->
<!-- Title: %3 Pages: 1 -->
<svg width="333pt" height="188pt"
 viewBox="0.00 0.00 332.69 188.00" xmlns="http://www.w3.org/2000/svg" xmlns:xlink="http://www.w3.org/1999/xlink">
<g id="graph0" class="graph" transform="scale(1 1) rotate(0) translate(4 184)">
<title>%3</title>
<polygon fill="#ffffff" stroke="transparent" points="-4,4 -4,-184 328.692,-184 328.692,4 -4,4"/>
<!-- Z -->
<g id="node1" class="node">
<title>Z</title>
<ellipse fill="none" stroke="#000000" cx="27" cy="-162" rx="27" ry="18"/>
<text text-anchor="middle" x="27" y="-158.3" font-family="Times,serif" font-size="14.00" fill="#000000">Z</text>
</g>
<!-- X -->
<g id="node2" class="node">
<title>X</title>
<ellipse fill="none" stroke="#000000" cx="27" cy="-90" rx="27" ry="18"/>
<text text-anchor="middle" x="27" y="-86.3" font-family="Times,serif" font-size="14.00" fill="#000000">X</text>
</g>
<!-- Z&#45;&gt;X -->
<g id="edge1" class="edge">
<title>Z&#45;&gt;X</title>
<path fill="none" stroke="#000000" d="M27,-143.8314C27,-136.131 27,-126.9743 27,-118.4166"/>
<polygon fill="#000000" stroke="#000000" points="30.5001,-118.4132 27,-108.4133 23.5001,-118.4133 30.5001,-118.4132"/>
</g>
<!-- U -->
<g id="node3" class="node">
<title>U</title>
<ellipse fill="none" stroke="#000000" cx="99" cy="-162" rx="27" ry="18"/>
<text text-anchor="middle" x="99" y="-158.3" font-family="Times,serif" font-size="14.00" fill="#000000">U</text>
</g>
<!-- U&#45;&gt;X -->
<g id="edge2" class="edge">
<title>U&#45;&gt;X</title>
<path fill="none" stroke="#000000" d="M83.7307,-146.7307C73.803,-136.803 60.6847,-123.6847 49.5637,-112.5637"/>
<polygon fill="#000000" stroke="#000000" points="51.7933,-109.8436 42.2473,-105.2473 46.8436,-114.7933 51.7933,-109.8436"/>
</g>
<!-- Y -->
<g id="node4" class="node">
<title>Y</title>
<ellipse fill="none" stroke="#000000" cx="99" cy="-90" rx="27" ry="18"/>
<text text-anchor="middle" x="99" y="-86.3" font-family="Times,serif" font-size="14.00" fill="#000000">Y</text>
</g>
<!-- U&#45;&gt;Y -->
<g id="edge3" class="edge">
<title>U&#45;&gt;Y</title>
<path fill="none" stroke="#000000" d="M99,-143.8314C99,-136.131 99,-126.9743 99,-118.4166"/>
<polygon fill="#000000" stroke="#000000" points="102.5001,-118.4132 99,-108.4133 95.5001,-118.4133 102.5001,-118.4132"/>
</g>
<!-- thuốc -->
<g id="node5" class="node">
<title>thuốc</title>
<ellipse fill="none" stroke="#000000" cx="205" cy="-90" rx="31.6951" ry="18"/>
<text text-anchor="middle" x="205" y="-86.3" font-family="Times,serif" font-size="14.00" fill="#000000">thuốc</text>
</g>
<!-- khả năng sống -->
<g id="node6" class="node">
<title>khả năng sống</title>
<ellipse fill="none" stroke="#000000" cx="235" cy="-18" rx="63.8893" ry="18"/>
<text text-anchor="middle" x="235" y="-14.3" font-family="Times,serif" font-size="14.00" fill="#000000">khả năng sống</text>
</g>
<!-- thuốc&#45;&gt;khả năng sống -->
<g id="edge4" class="edge">
<title>thuốc&#45;&gt;khả năng sống</title>
<path fill="none" stroke="#000000" d="M212.4157,-72.2022C215.7797,-64.1287 219.8343,-54.3976 223.5742,-45.422"/>
<polygon fill="#000000" stroke="#000000" points="226.8458,-46.6701 227.4612,-36.0931 220.3842,-43.9777 226.8458,-46.6701"/>
</g>
<!-- mức độ nghiêm trọng -->
<g id="node7" class="node">
<title>mức độ nghiêm trọng</title>
<ellipse fill="none" stroke="#000000" cx="235" cy="-162" rx="89.8845" ry="18"/>
<text text-anchor="middle" x="235" y="-158.3" font-family="Times,serif" font-size="14.00" fill="#000000">mức độ nghiêm trọng</text>
</g>
<!-- mức độ nghiêm trọng&#45;&gt;thuốc -->
<g id="edge6" class="edge">
<title>mức độ nghiêm trọng&#45;&gt;thuốc</title>
<path fill="none" stroke="#000000" d="M227.4297,-143.8314C224.0645,-135.7547 220.0317,-126.0761 216.3195,-117.1668"/>
<polygon fill="#000000" stroke="#000000" points="219.5409,-115.798 212.4639,-107.9134 213.0794,-118.4904 219.5409,-115.798"/>
</g>
<!-- mức độ nghiêm trọng&#45;&gt;khả năng sống -->
<g id="edge5" class="edge">
<title>mức độ nghiêm trọng&#45;&gt;khả năng sống</title>
<path fill="none" stroke="#000000" d="M239.6934,-143.6463C242.1071,-133.2631 244.7908,-119.9943 246,-108 247.6049,-92.0807 247.6049,-87.9193 246,-72 245.1498,-63.5665 243.5706,-54.5029 241.8689,-46.2554"/>
<polygon fill="#000000" stroke="#000000" points="245.2578,-45.3697 239.6934,-36.3537 238.4209,-46.8719 245.2578,-45.3697"/>
</g>
</g>
</svg>
