<?xml version="1.0" encoding="UTF-8" standalone="no"?>
<!DOCTYPE svg PUBLIC "-//W3C//DTD SVG 1.1//EN"
 "http://www.w3.org/Graphics/SVG/1.1/DTD/svg11.dtd">
<!-- Generated by graphviz version 2.40.1 (20161225.0304)
 -->
<!-- Title: %3 Pages: 1 -->
<svg width="220pt" height="188pt"
 viewBox="0.00 0.00 219.57 188.00" xmlns="http://www.w3.org/2000/svg" xmlns:xlink="http://www.w3.org/1999/xlink">
<g id="graph0" class="graph" transform="scale(1 1) rotate(0) translate(4 184)">
<title>%3</title>
<polygon fill="#ffffff" stroke="transparent" points="-4,4 -4,-184 215.5737,-184 215.5737,4 -4,4"/>
<!-- X -->
<g id="node1" class="node">
<title>X</title>
<ellipse fill="none" stroke="#000000" cx="68" cy="-162" rx="27" ry="18"/>
<text text-anchor="middle" x="68" y="-158.3" font-family="Times,serif" font-size="14.00" fill="#000000">X</text>
</g>
<!-- T -->
<g id="node2" class="node">
<title>T</title>
<ellipse fill="none" stroke="#000000" cx="27" cy="-90" rx="27" ry="18"/>
<text text-anchor="middle" x="27" y="-86.3" font-family="Times,serif" font-size="14.00" fill="#000000">T</text>
</g>
<!-- X&#45;&gt;T -->
<g id="edge1" class="edge">
<title>X&#45;&gt;T</title>
<path fill="none" stroke="#000000" d="M58.2836,-144.937C53.3307,-136.2393 47.2039,-125.4799 41.6887,-115.7948"/>
<polygon fill="#000000" stroke="#000000" points="44.6366,-113.8984 36.6467,-106.9405 38.5537,-117.3623 44.6366,-113.8984"/>
</g>
<!-- Y -->
<g id="node3" class="node">
<title>Y</title>
<ellipse fill="none" stroke="#000000" cx="67" cy="-18" rx="27" ry="18"/>
<text text-anchor="middle" x="67" y="-14.3" font-family="Times,serif" font-size="14.00" fill="#000000">Y</text>
</g>
<!-- X&#45;&gt;Y -->
<g id="edge2" class="edge">
<title>X&#45;&gt;Y</title>
<path fill="none" stroke="#000000" d="M67.8733,-143.7623C67.7028,-119.201 67.3976,-75.2474 67.1969,-46.3541"/>
<polygon fill="#000000" stroke="#000000" points="70.6951,-46.065 67.1256,-36.0896 63.6952,-46.1137 70.6951,-46.065"/>
</g>
<!-- T&#45;&gt;Y -->
<g id="edge3" class="edge">
<title>T&#45;&gt;Y</title>
<path fill="none" stroke="#000000" d="M36.4794,-72.937C41.3115,-64.2393 47.2889,-53.4799 52.6696,-43.7948"/>
<polygon fill="#000000" stroke="#000000" points="55.7917,-45.3819 57.5886,-34.9405 49.6726,-41.9823 55.7917,-45.3819"/>
</g>
<!-- Trí tuệ -->
<g id="node4" class="node">
<title>Trí tuệ</title>
<ellipse fill="none" stroke="#000000" cx="170" cy="-162" rx="35.194" ry="18"/>
<text text-anchor="middle" x="170" y="-158.3" font-family="Times,serif" font-size="14.00" fill="#000000">Trí tuệ</text>
</g>
<!-- Học vấn -->
<g id="node5" class="node">
<title>Học vấn</title>
<ellipse fill="none" stroke="#000000" cx="157" cy="-90" rx="42.4939" ry="18"/>
<text text-anchor="middle" x="157" y="-86.3" font-family="Times,serif" font-size="14.00" fill="#000000">Học vấn</text>
</g>
<!-- Trí tuệ&#45;&gt;Học vấn -->
<g id="edge4" class="edge">
<title>Trí tuệ&#45;&gt;Học vấn</title>
<path fill="none" stroke="#000000" d="M166.7196,-143.8314C165.3292,-136.131 163.6759,-126.9743 162.1308,-118.4166"/>
<polygon fill="#000000" stroke="#000000" points="165.5458,-117.6322 160.3246,-108.4133 158.6572,-118.8761 165.5458,-117.6322"/>
</g>
<!-- Lương -->
<g id="node6" class="node">
<title>Lương</title>
<ellipse fill="none" stroke="#000000" cx="172" cy="-18" rx="35.9954" ry="18"/>
<text text-anchor="middle" x="172" y="-14.3" font-family="Times,serif" font-size="14.00" fill="#000000">Lương</text>
</g>
<!-- Trí tuệ&#45;&gt;Lương -->
<g id="edge5" class="edge">
<title>Trí tuệ&#45;&gt;Lương</title>
<path fill="none" stroke="#000000" d="M185.6784,-145.4918C194.0712,-135.4891 203.5712,-121.9891 208,-108 212.8292,-92.7462 212.6365,-87.3135 208,-72 204.8655,-61.6475 199.0194,-51.4656 192.9361,-42.7822"/>
<polygon fill="#000000" stroke="#000000" points="195.6514,-40.5685 186.8655,-34.6475 190.0413,-44.7551 195.6514,-40.5685"/>
</g>
<!-- Học vấn&#45;&gt;Lương -->
<g id="edge6" class="edge">
<title>Học vấn&#45;&gt;Lương</title>
<path fill="none" stroke="#000000" d="M160.7851,-71.8314C162.432,-63.9266 164.3985,-54.4872 166.2216,-45.7365"/>
<polygon fill="#000000" stroke="#000000" points="169.6548,-46.4171 168.268,-35.9134 162.802,-44.9894 169.6548,-46.4171"/>
</g>
</g>
</svg>
