<?xml version="1.0" encoding="UTF-8" standalone="no"?>
<!DOCTYPE svg PUBLIC "-//W3C//DTD SVG 1.1//EN"
 "http://www.w3.org/Graphics/SVG/1.1/DTD/svg11.dtd">
<!-- Generated by graphviz version 2.40.1 (20161225.0304)
 -->
<!-- Title: %3 Pages: 1 -->
<svg width="453pt" height="260pt"
 viewBox="0.00 0.00 452.84 260.00" xmlns="http://www.w3.org/2000/svg" xmlns:xlink="http://www.w3.org/1999/xlink">
<g id="graph0" class="graph" transform="scale(1 1) rotate(0) translate(4 256)">
<title>%3</title>
<polygon fill="#ffffff" stroke="transparent" points="-4,4 -4,-256 448.8437,-256 448.8437,4 -4,4"/>
<!-- X -->
<g id="node1" class="node">
<title>X</title>
<ellipse fill="none" stroke="#000000" cx="55" cy="-234" rx="27" ry="18"/>
<text text-anchor="middle" x="55" y="-230.3" font-family="Times,serif" font-size="14.00" fill="#000000">X</text>
</g>
<!-- U -->
<g id="node2" class="node">
<title>U</title>
<ellipse fill="none" stroke="#000000" cx="55" cy="-162" rx="27" ry="18"/>
<text text-anchor="middle" x="55" y="-158.3" font-family="Times,serif" font-size="14.00" fill="#000000">U</text>
</g>
<!-- X&#45;&gt;U -->
<g id="edge1" class="edge">
<title>X&#45;&gt;U</title>
<path fill="none" stroke="#000000" d="M55,-215.8314C55,-208.131 55,-198.9743 55,-190.4166"/>
<polygon fill="#000000" stroke="#000000" points="58.5001,-190.4132 55,-180.4133 51.5001,-190.4133 58.5001,-190.4132"/>
</g>
<!-- T -->
<g id="node3" class="node">
<title>T</title>
<ellipse fill="none" stroke="#000000" cx="27" cy="-90" rx="27" ry="18"/>
<text text-anchor="middle" x="27" y="-86.3" font-family="Times,serif" font-size="14.00" fill="#000000">T</text>
</g>
<!-- U&#45;&gt;T -->
<g id="edge2" class="edge">
<title>U&#45;&gt;T</title>
<path fill="none" stroke="#000000" d="M48.222,-144.5708C45.0128,-136.3187 41.1065,-126.2738 37.5242,-117.0623"/>
<polygon fill="#000000" stroke="#000000" points="40.6992,-115.5697 33.8126,-107.5182 34.1752,-118.1069 40.6992,-115.5697"/>
</g>
<!-- Y -->
<g id="node4" class="node">
<title>Y</title>
<ellipse fill="none" stroke="#000000" cx="55" cy="-18" rx="27" ry="18"/>
<text text-anchor="middle" x="55" y="-14.3" font-family="Times,serif" font-size="14.00" fill="#000000">Y</text>
</g>
<!-- U&#45;&gt;Y -->
<g id="edge4" class="edge">
<title>U&#45;&gt;Y</title>
<path fill="none" stroke="#000000" d="M58.3315,-144.0736C60.1087,-133.5982 62.1087,-120.0982 63,-108 64.1756,-92.0432 64.1756,-87.9568 63,-72 62.3733,-63.4935 61.1985,-54.2939 59.9384,-45.9399"/>
<polygon fill="#000000" stroke="#000000" points="63.3718,-45.2455 58.3315,-35.9264 56.4602,-46.3546 63.3718,-45.2455"/>
</g>
<!-- T&#45;&gt;Y -->
<g id="edge3" class="edge">
<title>T&#45;&gt;Y</title>
<path fill="none" stroke="#000000" d="M33.778,-72.5708C36.9872,-64.3187 40.8935,-54.2738 44.4758,-45.0623"/>
<polygon fill="#000000" stroke="#000000" points="47.8248,-46.1069 48.1874,-35.5182 41.3008,-43.5697 47.8248,-46.1069"/>
</g>
<!-- Trí tuệ -->
<g id="node5" class="node">
<title>Trí tuệ</title>
<ellipse fill="none" stroke="#000000" cx="254" cy="-162" rx="35.194" ry="18"/>
<text text-anchor="middle" x="254" y="-158.3" font-family="Times,serif" font-size="14.00" fill="#000000">Trí tuệ</text>
</g>
<!-- IQ -->
<g id="node6" class="node">
<title>IQ</title>
<ellipse fill="none" stroke="#000000" cx="137" cy="-90" rx="27" ry="18"/>
<text text-anchor="middle" x="137" y="-86.3" font-family="Times,serif" font-size="14.00" fill="#000000">IQ</text>
</g>
<!-- Trí tuệ&#45;&gt;IQ -->
<g id="edge5" class="edge">
<title>Trí tuệ&#45;&gt;IQ</title>
<path fill="none" stroke="#000000" d="M231.4412,-148.1177C212.6997,-136.5845 185.923,-120.1065 165.6646,-107.6397"/>
<polygon fill="#000000" stroke="#000000" points="167.4973,-104.6579 157.1463,-102.3977 163.8285,-110.6196 167.4973,-104.6579"/>
</g>
<!-- SAT -->
<g id="node7" class="node">
<title>SAT</title>
<ellipse fill="none" stroke="#000000" cx="210" cy="-90" rx="27.8951" ry="18"/>
<text text-anchor="middle" x="210" y="-86.3" font-family="Times,serif" font-size="14.00" fill="#000000">SAT</text>
</g>
<!-- Trí tuệ&#45;&gt;SAT -->
<g id="edge6" class="edge">
<title>Trí tuệ&#45;&gt;SAT</title>
<path fill="none" stroke="#000000" d="M243.3488,-144.5708C238.0293,-135.8661 231.4907,-125.1665 225.6167,-115.5546"/>
<polygon fill="#000000" stroke="#000000" points="228.4512,-113.4807 220.2501,-106.7729 222.4782,-117.1308 228.4512,-113.4807"/>
</g>
<!-- Học vấn -->
<g id="node10" class="node">
<title>Học vấn</title>
<ellipse fill="none" stroke="#000000" cx="298" cy="-90" rx="42.4939" ry="18"/>
<text text-anchor="middle" x="298" y="-86.3" font-family="Times,serif" font-size="14.00" fill="#000000">Học vấn</text>
</g>
<!-- Trí tuệ&#45;&gt;Học vấn -->
<g id="edge9" class="edge">
<title>Trí tuệ&#45;&gt;Học vấn</title>
<path fill="none" stroke="#000000" d="M264.6512,-144.5708C269.8551,-136.0553 276.2256,-125.6308 281.9993,-116.183"/>
<polygon fill="#000000" stroke="#000000" points="285.0664,-117.8762 287.2944,-107.5182 279.0934,-114.226 285.0664,-117.8762"/>
</g>
<!-- Lương -->
<g id="node11" class="node">
<title>Lương</title>
<ellipse fill="none" stroke="#000000" cx="333" cy="-18" rx="35.9954" ry="18"/>
<text text-anchor="middle" x="333" y="-14.3" font-family="Times,serif" font-size="14.00" fill="#000000">Lương</text>
</g>
<!-- Trí tuệ&#45;&gt;Lương -->
<g id="edge11" class="edge">
<title>Trí tuệ&#45;&gt;Lương</title>
<path fill="none" stroke="#000000" d="M285.2138,-153.4306C307.3129,-145.5502 335.3566,-131.4487 349,-108 360.2141,-88.7264 354.2984,-63.4977 346.6783,-44.6569"/>
<polygon fill="#000000" stroke="#000000" points="349.8568,-43.1902 342.6199,-35.4521 343.4517,-46.0142 349.8568,-43.1902"/>
</g>
<!-- Học vấn của cha -->
<g id="node8" class="node">
<title>Học vấn của cha</title>
<ellipse fill="none" stroke="#000000" cx="213" cy="-234" rx="72.2875" ry="18"/>
<text text-anchor="middle" x="213" y="-230.3" font-family="Times,serif" font-size="14.00" fill="#000000">Học vấn của cha</text>
</g>
<!-- Học vấn của cha&#45;&gt;Trí tuệ -->
<g id="edge7" class="edge">
<title>Học vấn của cha&#45;&gt;Trí tuệ</title>
<path fill="none" stroke="#000000" d="M223.346,-215.8314C228.1143,-207.4579 233.863,-197.3626 239.0875,-188.1878"/>
<polygon fill="#000000" stroke="#000000" points="242.1746,-189.8395 244.0816,-179.4177 236.0917,-186.3756 242.1746,-189.8395"/>
</g>
<!-- Học vấn của mẹ -->
<g id="node9" class="node">
<title>Học vấn của mẹ</title>
<ellipse fill="none" stroke="#000000" cx="374" cy="-234" rx="70.6878" ry="18"/>
<text text-anchor="middle" x="374" y="-230.3" font-family="Times,serif" font-size="14.00" fill="#000000">Học vấn của mẹ</text>
</g>
<!-- Học vấn của mẹ&#45;&gt;Trí tuệ -->
<g id="edge8" class="edge">
<title>Học vấn của mẹ&#45;&gt;Trí tuệ</title>
<path fill="none" stroke="#000000" d="M346.168,-217.3008C328.0799,-206.4479 304.454,-192.2724 285.6512,-180.9907"/>
<polygon fill="#000000" stroke="#000000" points="287.2292,-177.8559 276.8535,-175.7121 283.6277,-183.8584 287.2292,-177.8559"/>
</g>
<!-- Học vấn&#45;&gt;Lương -->
<g id="edge10" class="edge">
<title>Học vấn&#45;&gt;Lương</title>
<path fill="none" stroke="#000000" d="M306.6517,-72.2022C310.6782,-63.9192 315.5528,-53.8915 320.0088,-44.7248"/>
<polygon fill="#000000" stroke="#000000" points="323.2236,-46.1169 324.4478,-35.593 316.9281,-43.0565 323.2236,-46.1169"/>
</g>
</g>
</svg>
