<?xml version="1.0" encoding="UTF-8" standalone="no"?>
<!DOCTYPE svg PUBLIC "-//W3C//DTD SVG 1.1//EN"
 "http://www.w3.org/Graphics/SVG/1.1/DTD/svg11.dtd">
<!-- Generated by graphviz version 2.40.1 (20161225.0304)
 -->
<!-- Title: %3 Pages: 1 -->
<svg width="229pt" height="188pt"
 viewBox="0.00 0.00 229.00 188.00" xmlns="http://www.w3.org/2000/svg" xmlns:xlink="http://www.w3.org/1999/xlink">
<g id="graph0" class="graph" transform="scale(1 1) rotate(0) translate(4 184)">
<title>%3</title>
<polygon fill="#ffffff" stroke="transparent" points="-4,4 -4,-184 225.0016,-184 225.0016,4 -4,4"/>
<!-- T -->
<g id="node1" class="node">
<title>T</title>
<ellipse fill="none" stroke="#000000" cx="66" cy="-162" rx="27" ry="18"/>
<text text-anchor="middle" x="66" y="-158.3" font-family="Times,serif" font-size="14.00" fill="#000000">T</text>
</g>
<!-- X -->
<g id="node2" class="node">
<title>X</title>
<ellipse fill="none" stroke="#ff0000" cx="27" cy="-90" rx="27" ry="18"/>
<text text-anchor="middle" x="27" y="-86.3" font-family="Times,serif" font-size="14.00" fill="#000000">X</text>
</g>
<!-- T&#45;&gt;X -->
<g id="edge1" class="edge">
<title>T&#45;&gt;X</title>
<path fill="none" stroke="#000000" d="M56.7575,-144.937C52.0463,-136.2393 46.2183,-125.4799 40.9722,-115.7948"/>
<polygon fill="#000000" stroke="#000000" points="44.0165,-114.0664 36.1761,-106.9405 37.8615,-117.4005 44.0165,-114.0664"/>
</g>
<!-- Y -->
<g id="node3" class="node">
<title>Y</title>
<ellipse fill="none" stroke="#000000" cx="68" cy="-18" rx="27" ry="18"/>
<text text-anchor="middle" x="68" y="-14.3" font-family="Times,serif" font-size="14.00" fill="#000000">Y</text>
</g>
<!-- T&#45;&gt;Y -->
<g id="edge2" class="edge">
<title>T&#45;&gt;Y</title>
<path fill="none" stroke="#000000" d="M66.2533,-143.7623C66.5944,-119.201 67.2049,-75.2474 67.6062,-46.3541"/>
<polygon fill="#000000" stroke="#000000" points="71.1094,-46.1373 67.7488,-36.0896 64.1101,-46.04 71.1094,-46.1373"/>
</g>
<!-- X&#45;&gt;Y -->
<g id="edge3" class="edge">
<title>X&#45;&gt;Y</title>
<path fill="none" stroke="#000000" d="M36.7164,-72.937C41.6693,-64.2393 47.7961,-53.4799 53.3113,-43.7948"/>
<polygon fill="#000000" stroke="#000000" points="56.4463,-45.3623 58.3533,-34.9405 50.3634,-41.8984 56.4463,-45.3623"/>
</g>
<!-- học vấn -->
<g id="node4" class="node">
<title>học vấn</title>
<ellipse fill="none" stroke="#000000" cx="174" cy="-162" rx="40.0939" ry="18"/>
<text text-anchor="middle" x="174" y="-158.3" font-family="Times,serif" font-size="14.00" fill="#000000">học vấn</text>
</g>
<!-- văn phòng -->
<g id="node5" class="node">
<title>văn phòng</title>
<ellipse fill="none" stroke="#000000" cx="159" cy="-90" rx="48.9926" ry="18"/>
<text text-anchor="middle" x="159" y="-86.3" font-family="Times,serif" font-size="14.00" fill="#000000">văn phòng</text>
</g>
<!-- học vấn&#45;&gt;văn phòng -->
<g id="edge4" class="edge">
<title>học vấn&#45;&gt;văn phòng</title>
<path fill="none" stroke="#000000" d="M170.2149,-143.8314C168.6106,-136.131 166.703,-126.9743 164.9201,-118.4166"/>
<polygon fill="#000000" stroke="#000000" points="168.3021,-117.4892 162.8361,-108.4133 161.4493,-118.9169 168.3021,-117.4892"/>
</g>
<!-- lương -->
<g id="node6" class="node">
<title>lương</title>
<ellipse fill="none" stroke="#000000" cx="173" cy="-18" rx="33.2948" ry="18"/>
<text text-anchor="middle" x="173" y="-14.3" font-family="Times,serif" font-size="14.00" fill="#000000">lương</text>
</g>
<!-- học vấn&#45;&gt;lương -->
<g id="edge5" class="edge">
<title>học vấn&#45;&gt;lương</title>
<path fill="none" stroke="#000000" d="M192.1496,-145.3948C201.5234,-135.5587 212.0179,-122.2545 217,-108 222.279,-92.896 222.3638,-87.0742 217,-72 212.965,-60.6601 205.4165,-49.9753 197.6964,-41.1503"/>
<polygon fill="#000000" stroke="#000000" points="200.0356,-38.5268 190.6543,-33.6032 194.9175,-43.3024 200.0356,-38.5268"/>
</g>
<!-- văn phòng&#45;&gt;lương -->
<g id="edge6" class="edge">
<title>văn phòng&#45;&gt;lương</title>
<path fill="none" stroke="#000000" d="M162.5328,-71.8314C164.0698,-63.9266 165.9053,-54.4872 167.6068,-45.7365"/>
<polygon fill="#000000" stroke="#000000" points="171.0437,-46.3976 169.5168,-35.9134 164.1724,-45.0615 171.0437,-46.3976"/>
</g>
</g>
</svg>
