<?xml version="1.0" encoding="UTF-8" standalone="no"?>
<!DOCTYPE svg PUBLIC "-//W3C//DTD SVG 1.1//EN"
 "http://www.w3.org/Graphics/SVG/1.1/DTD/svg11.dtd">
<!-- Generated by graphviz version 2.40.1 (20161225.0304)
 -->
<!-- Title: %3 Pages: 1 -->
<svg width="551pt" height="116pt"
 viewBox="0.00 0.00 550.60 116.00" xmlns="http://www.w3.org/2000/svg" xmlns:xlink="http://www.w3.org/1999/xlink">
<g id="graph0" class="graph" transform="scale(1 1) rotate(0) translate(4 112)">
<title>%3</title>
<polygon fill="#ffffff" stroke="transparent" points="-4,4 -4,-112 546.5963,-112 546.5963,4 -4,4"/>
<!-- C -->
<g id="node1" class="node">
<title>C</title>
<ellipse fill="none" stroke="#000000" cx="63" cy="-90" rx="27" ry="18"/>
<text text-anchor="middle" x="63" y="-86.3" font-family="Times,serif" font-size="14.00" fill="#000000">C</text>
</g>
<!-- A -->
<g id="node2" class="node">
<title>A</title>
<ellipse fill="none" stroke="#000000" cx="27" cy="-18" rx="27" ry="18"/>
<text text-anchor="middle" x="27" y="-14.3" font-family="Times,serif" font-size="14.00" fill="#000000">A</text>
</g>
<!-- C&#45;&gt;A -->
<g id="edge1" class="edge">
<title>C&#45;&gt;A</title>
<path fill="none" stroke="#000000" d="M54.2854,-72.5708C50.0403,-64.0807 44.8464,-53.6929 40.1337,-44.2674"/>
<polygon fill="#000000" stroke="#000000" points="43.237,-42.6477 35.6343,-35.2687 36.976,-45.7782 43.237,-42.6477"/>
</g>
<!-- B -->
<g id="node3" class="node">
<title>B</title>
<ellipse fill="none" stroke="#000000" cx="99" cy="-18" rx="27" ry="18"/>
<text text-anchor="middle" x="99" y="-14.3" font-family="Times,serif" font-size="14.00" fill="#000000">B</text>
</g>
<!-- C&#45;&gt;B -->
<g id="edge2" class="edge">
<title>C&#45;&gt;B</title>
<path fill="none" stroke="#000000" d="M71.7146,-72.5708C75.9597,-64.0807 81.1536,-53.6929 85.8663,-44.2674"/>
<polygon fill="#000000" stroke="#000000" points="89.024,-45.7782 90.3657,-35.2687 82.763,-42.6477 89.024,-45.7782"/>
</g>
<!-- X -->
<g id="node4" class="node">
<title>X</title>
<ellipse fill="none" stroke="#ff0000" cx="207" cy="-90" rx="27" ry="18"/>
<text text-anchor="middle" x="207" y="-86.3" font-family="Times,serif" font-size="14.00" fill="#000000">X</text>
</g>
<!-- Y -->
<g id="node5" class="node">
<title>Y</title>
<ellipse fill="none" stroke="#000000" cx="171" cy="-18" rx="27" ry="18"/>
<text text-anchor="middle" x="171" y="-14.3" font-family="Times,serif" font-size="14.00" fill="#000000">Y</text>
</g>
<!-- X&#45;&gt;Y -->
<g id="edge3" class="edge">
<title>X&#45;&gt;Y</title>
<path fill="none" stroke="#000000" d="M198.2854,-72.5708C194.0403,-64.0807 188.8464,-53.6929 184.1337,-44.2674"/>
<polygon fill="#000000" stroke="#000000" points="187.237,-42.6477 179.6343,-35.2687 180.976,-45.7782 187.237,-42.6477"/>
</g>
<!-- Z -->
<g id="node6" class="node">
<title>Z</title>
<ellipse fill="none" stroke="#000000" cx="243" cy="-18" rx="27" ry="18"/>
<text text-anchor="middle" x="243" y="-14.3" font-family="Times,serif" font-size="14.00" fill="#000000">Z</text>
</g>
<!-- X&#45;&gt;Z -->
<g id="edge4" class="edge">
<title>X&#45;&gt;Z</title>
<path fill="none" stroke="#000000" d="M215.7146,-72.5708C219.9597,-64.0807 225.1536,-53.6929 229.8663,-44.2674"/>
<polygon fill="#000000" stroke="#000000" points="233.024,-45.7782 234.3657,-35.2687 226.763,-42.6477 233.024,-45.7782"/>
</g>
<!-- thống kê -->
<g id="node7" class="node">
<title>thống kê</title>
<ellipse fill="none" stroke="#000000" cx="433" cy="-90" rx="42.7926" ry="18"/>
<text text-anchor="middle" x="433" y="-86.3" font-family="Times,serif" font-size="14.00" fill="#000000">thống kê</text>
</g>
<!-- suy luận nhân quả -->
<g id="node8" class="node">
<title>suy luận nhân quả</title>
<ellipse fill="none" stroke="#000000" cx="365" cy="-18" rx="76.8869" ry="18"/>
<text text-anchor="middle" x="365" y="-14.3" font-family="Times,serif" font-size="14.00" fill="#000000">suy luận nhân quả</text>
</g>
<!-- thống kê&#45;&gt;suy luận nhân quả -->
<g id="edge5" class="edge">
<title>thống kê&#45;&gt;suy luận nhân quả</title>
<path fill="none" stroke="#000000" d="M416.8849,-72.937C408.4348,-63.9898 397.9242,-52.8609 388.5771,-42.964"/>
<polygon fill="#000000" stroke="#000000" points="391.1203,-40.5594 381.7095,-35.6924 386.0312,-45.3658 391.1203,-40.5594"/>
</g>
<!-- học máy -->
<g id="node9" class="node">
<title>học máy</title>
<ellipse fill="none" stroke="#000000" cx="501" cy="-18" rx="41.6928" ry="18"/>
<text text-anchor="middle" x="501" y="-14.3" font-family="Times,serif" font-size="14.00" fill="#000000">học máy</text>
</g>
<!-- thống kê&#45;&gt;học máy -->
<g id="edge6" class="edge">
<title>thống kê&#45;&gt;học máy</title>
<path fill="none" stroke="#000000" d="M449.1151,-72.937C457.753,-63.791 468.5439,-52.3652 478.0443,-42.3061"/>
<polygon fill="#000000" stroke="#000000" points="480.6789,-44.6139 485.0006,-34.9405 475.5898,-39.8075 480.6789,-44.6139"/>
</g>
</g>
</svg>
