<?xml version="1.0" encoding="UTF-8" standalone="no"?>
<!DOCTYPE svg PUBLIC "-//W3C//DTD SVG 1.1//EN"
 "http://www.w3.org/Graphics/SVG/1.1/DTD/svg11.dtd">
<!-- Generated by graphviz version 2.40.1 (20161225.0304)
 -->
<!-- Title: %3 Pages: 1 -->
<svg width="220pt" height="188pt"
 viewBox="0.00 0.00 219.75 188.00" xmlns="http://www.w3.org/2000/svg" xmlns:xlink="http://www.w3.org/1999/xlink">
<g id="graph0" class="graph" transform="scale(1 1) rotate(0) translate(4 184)">
<title>%3</title>
<polygon fill="#ffffff" stroke="transparent" points="-4,4 -4,-184 215.7468,-184 215.7468,4 -4,4"/>
<!-- T -->
<g id="node1" class="node">
<title>T</title>
<ellipse fill="none" stroke="#000000" cx="29" cy="-162" rx="27" ry="18"/>
<text text-anchor="middle" x="29" y="-158.3" font-family="Times,serif" font-size="14.00" fill="#000000">T</text>
</g>
<!-- X -->
<g id="node2" class="node">
<title>X</title>
<ellipse fill="none" stroke="#ff0000" cx="27" cy="-18" rx="27" ry="18"/>
<text text-anchor="middle" x="27" y="-14.3" font-family="Times,serif" font-size="14.00" fill="#000000">X</text>
</g>
<!-- T&#45;&gt;X -->
<g id="edge1" class="edge">
<title>T&#45;&gt;X</title>
<path fill="none" stroke="#000000" d="M20.2805,-144.491C15.624,-134.1547 10.374,-120.6547 8,-108 5.0498,-92.2743 5.3063,-87.7716 8,-72 9.5393,-62.9872 12.4261,-53.4782 15.4931,-44.9937"/>
<polygon fill="#000000" stroke="#000000" points="18.7847,-46.1853 19.1063,-35.5953 12.2509,-43.6734 18.7847,-46.1853"/>
</g>
<!-- Y -->
<g id="node3" class="node">
<title>Y</title>
<ellipse fill="none" stroke="#000000" cx="44" cy="-90" rx="27" ry="18"/>
<text text-anchor="middle" x="44" y="-86.3" font-family="Times,serif" font-size="14.00" fill="#000000">Y</text>
</g>
<!-- T&#45;&gt;Y -->
<g id="edge2" class="edge">
<title>T&#45;&gt;Y</title>
<path fill="none" stroke="#000000" d="M32.7851,-143.8314C34.432,-135.9266 36.3985,-126.4872 38.2216,-117.7365"/>
<polygon fill="#000000" stroke="#000000" points="41.6548,-118.4171 40.268,-107.9134 34.802,-116.9894 41.6548,-118.4171"/>
</g>
<!-- Y&#45;&gt;X -->
<g id="edge3" class="edge">
<title>Y&#45;&gt;X</title>
<path fill="none" stroke="#000000" d="M39.7978,-72.2022C37.9179,-64.2406 35.6575,-54.6671 33.5629,-45.7957"/>
<polygon fill="#000000" stroke="#000000" points="36.9172,-44.7706 31.2128,-35.8425 30.1045,-46.3792 36.9172,-44.7706"/>
</g>
<!-- Học vấn -->
<g id="node4" class="node">
<title>Học vấn</title>
<ellipse fill="none" stroke="#000000" cx="127" cy="-162" rx="42.4939" ry="18"/>
<text text-anchor="middle" x="127" y="-158.3" font-family="Times,serif" font-size="14.00" fill="#000000">Học vấn</text>
</g>
<!-- Đầu tư -->
<g id="node5" class="node">
<title>Đầu tư</title>
<ellipse fill="none" stroke="#000000" cx="129" cy="-18" rx="36.2938" ry="18"/>
<text text-anchor="middle" x="129" y="-14.3" font-family="Times,serif" font-size="14.00" fill="#000000">Đầu tư</text>
</g>
<!-- Học vấn&#45;&gt;Đầu tư -->
<g id="edge4" class="edge">
<title>Học vấn&#45;&gt;Đầu tư</title>
<path fill="none" stroke="#000000" d="M127.2533,-143.7623C127.5944,-119.201 128.2049,-75.2474 128.6062,-46.3541"/>
<polygon fill="#000000" stroke="#000000" points="132.1094,-46.1373 128.7488,-36.0896 125.1101,-46.04 132.1094,-46.1373"/>
</g>
<!-- Lương -->
<g id="node6" class="node">
<title>Lương</title>
<ellipse fill="none" stroke="#000000" cx="176" cy="-90" rx="35.9954" ry="18"/>
<text text-anchor="middle" x="176" y="-86.3" font-family="Times,serif" font-size="14.00" fill="#000000">Lương</text>
</g>
<!-- Học vấn&#45;&gt;Lương -->
<g id="edge5" class="edge">
<title>Học vấn&#45;&gt;Lương</title>
<path fill="none" stroke="#000000" d="M138.8615,-144.5708C144.7599,-135.9038 152.0042,-125.2592 158.5236,-115.6796"/>
<polygon fill="#000000" stroke="#000000" points="161.5149,-117.505 164.2477,-107.2687 155.7279,-113.5666 161.5149,-117.505"/>
</g>
<!-- Lương&#45;&gt;Đầu tư -->
<g id="edge6" class="edge">
<title>Lương&#45;&gt;Đầu tư</title>
<path fill="none" stroke="#000000" d="M164.6226,-72.5708C158.965,-63.9038 152.0164,-53.2592 145.7631,-43.6796"/>
<polygon fill="#000000" stroke="#000000" points="148.6697,-41.7293 140.2726,-35.2687 142.8081,-45.5557 148.6697,-41.7293"/>
</g>
</g>
</svg>
