<?xml version="1.0" encoding="UTF-8" standalone="no"?>
<!DOCTYPE svg PUBLIC "-//W3C//DTD SVG 1.1//EN"
 "http://www.w3.org/Graphics/SVG/1.1/DTD/svg11.dtd">
<!-- Generated by graphviz version 2.40.1 (20161225.0304)
 -->
<!-- Title: %3 Pages: 1 -->
<svg width="457pt" height="260pt"
 viewBox="0.00 0.00 457.10 260.00" xmlns="http://www.w3.org/2000/svg" xmlns:xlink="http://www.w3.org/1999/xlink">
<g id="graph0" class="graph" transform="scale(1 1) rotate(0) translate(4 256)">
<title>%3</title>
<polygon fill="#ffffff" stroke="transparent" points="-4,4 -4,-256 453.0969,-256 453.0969,4 -4,4"/>
<!-- X1 -->
<g id="node1" class="node">
<title>X1</title>
<ellipse fill="none" stroke="#000000" cx="27" cy="-162" rx="27" ry="18"/>
<text text-anchor="middle" x="27" y="-158.3" font-family="Times,serif" font-size="14.00" fill="#000000">X1</text>
</g>
<!-- T -->
<g id="node2" class="node">
<title>T</title>
<ellipse fill="none" stroke="#000000" cx="95" cy="-90" rx="27" ry="18"/>
<text text-anchor="middle" x="95" y="-86.3" font-family="Times,serif" font-size="14.00" fill="#000000">T</text>
</g>
<!-- X1&#45;&gt;T -->
<g id="edge1" class="edge">
<title>X1&#45;&gt;T</title>
<path fill="none" stroke="#000000" d="M41.4211,-146.7307C50.7972,-136.803 63.1867,-123.6847 73.6899,-112.5637"/>
<polygon fill="#000000" stroke="#000000" points="76.278,-114.9207 80.5997,-105.2473 71.1889,-110.1143 76.278,-114.9207"/>
</g>
<!-- Y -->
<g id="node3" class="node">
<title>Y</title>
<ellipse fill="none" stroke="#000000" cx="95" cy="-18" rx="27" ry="18"/>
<text text-anchor="middle" x="95" y="-14.3" font-family="Times,serif" font-size="14.00" fill="#000000">Y</text>
</g>
<!-- X1&#45;&gt;Y -->
<g id="edge4" class="edge">
<title>X1&#45;&gt;Y</title>
<path fill="none" stroke="#000000" d="M31.9041,-144.2215C37.342,-125.6765 46.9578,-96.0147 59,-72 64.0001,-62.0288 70.5168,-51.6939 76.6293,-42.7678"/>
<polygon fill="#000000" stroke="#000000" points="79.6417,-44.5689 82.536,-34.377 73.9177,-40.5395 79.6417,-44.5689"/>
</g>
<!-- T&#45;&gt;Y -->
<g id="edge2" class="edge">
<title>T&#45;&gt;Y</title>
<path fill="none" stroke="#000000" d="M95,-71.8314C95,-64.131 95,-54.9743 95,-46.4166"/>
<polygon fill="#000000" stroke="#000000" points="98.5001,-46.4132 95,-36.4133 91.5001,-46.4133 98.5001,-46.4132"/>
</g>
<!-- X2 -->
<g id="node4" class="node">
<title>X2</title>
<ellipse fill="none" stroke="#000000" cx="99" cy="-162" rx="27" ry="18"/>
<text text-anchor="middle" x="99" y="-158.3" font-family="Times,serif" font-size="14.00" fill="#000000">X2</text>
</g>
<!-- X2&#45;&gt;T -->
<g id="edge3" class="edge">
<title>X2&#45;&gt;T</title>
<path fill="none" stroke="#000000" d="M97.9906,-143.8314C97.5628,-136.131 97.0541,-126.9743 96.5787,-118.4166"/>
<polygon fill="#000000" stroke="#000000" points="100.0724,-118.2037 96.023,-108.4133 93.0831,-118.592 100.0724,-118.2037"/>
</g>
<!-- U -->
<g id="node5" class="node">
<title>U</title>
<ellipse fill="none" stroke="#000000" cx="127" cy="-234" rx="27" ry="18"/>
<text text-anchor="middle" x="127" y="-230.3" font-family="Times,serif" font-size="14.00" fill="#000000">U</text>
</g>
<!-- U&#45;&gt;Y -->
<g id="edge6" class="edge">
<title>U&#45;&gt;Y</title>
<path fill="none" stroke="#000000" d="M131.3409,-215.9151C137.8339,-185.3453 147.6367,-121.91 131,-72 127.4726,-61.4177 121.2896,-50.9444 115.0324,-42.0784"/>
<polygon fill="#000000" stroke="#000000" points="117.6371,-39.7171 108.8461,-33.8036 112.0306,-43.9085 117.6371,-39.7171"/>
</g>
<!-- U&#45;&gt;X2 -->
<g id="edge5" class="edge">
<title>U&#45;&gt;X2</title>
<path fill="none" stroke="#000000" d="M120.222,-216.5708C117.0128,-208.3187 113.1065,-198.2738 109.5242,-189.0623"/>
<polygon fill="#000000" stroke="#000000" points="112.6992,-187.5697 105.8126,-179.5182 106.1752,-190.1069 112.6992,-187.5697"/>
</g>
<!-- Thu nhập Gia đình -->
<g id="node6" class="node">
<title>Thu nhập Gia đình</title>
<ellipse fill="none" stroke="#000000" cx="261" cy="-162" rx="79.0865" ry="18"/>
<text text-anchor="middle" x="261" y="-158.3" font-family="Times,serif" font-size="14.00" fill="#000000">Thu nhập Gia đình</text>
</g>
<!-- Học vấn -->
<g id="node7" class="node">
<title>Học vấn</title>
<ellipse fill="none" stroke="#000000" cx="361" cy="-90" rx="42.4939" ry="18"/>
<text text-anchor="middle" x="361" y="-86.3" font-family="Times,serif" font-size="14.00" fill="#000000">Học vấn</text>
</g>
<!-- Thu nhập Gia đình&#45;&gt;Học vấn -->
<g id="edge7" class="edge">
<title>Thu nhập Gia đình&#45;&gt;Học vấn</title>
<path fill="none" stroke="#000000" d="M284.9525,-144.7542C298.7668,-134.8079 316.2615,-122.2118 330.9873,-111.6091"/>
<polygon fill="#000000" stroke="#000000" points="333.2187,-114.3154 339.289,-105.6319 329.1285,-108.6347 333.2187,-114.3154"/>
</g>
<!-- Lương -->
<g id="node8" class="node">
<title>Lương</title>
<ellipse fill="none" stroke="#000000" cx="361" cy="-18" rx="35.9954" ry="18"/>
<text text-anchor="middle" x="361" y="-14.3" font-family="Times,serif" font-size="14.00" fill="#000000">Lương</text>
</g>
<!-- Thu nhập Gia đình&#45;&gt;Lương -->
<g id="edge10" class="edge">
<title>Thu nhập Gia đình&#45;&gt;Lương</title>
<path fill="none" stroke="#000000" d="M269.1216,-143.9433C277.9478,-125.1715 293.0739,-95.3271 310,-72 317.8098,-61.2367 327.6035,-50.3822 336.5154,-41.2566"/>
<polygon fill="#000000" stroke="#000000" points="339.137,-43.5847 343.7311,-34.0377 334.1862,-38.6361 339.137,-43.5847"/>
</g>
<!-- Học vấn&#45;&gt;Lương -->
<g id="edge8" class="edge">
<title>Học vấn&#45;&gt;Lương</title>
<path fill="none" stroke="#000000" d="M361,-71.8314C361,-64.131 361,-54.9743 361,-46.4166"/>
<polygon fill="#000000" stroke="#000000" points="364.5001,-46.4132 361,-36.4133 357.5001,-46.4133 364.5001,-46.4132"/>
</g>
<!-- SAT -->
<g id="node9" class="node">
<title>SAT</title>
<ellipse fill="none" stroke="#000000" cx="386" cy="-162" rx="27.8951" ry="18"/>
<text text-anchor="middle" x="386" y="-158.3" font-family="Times,serif" font-size="14.00" fill="#000000">SAT</text>
</g>
<!-- SAT&#45;&gt;Học vấn -->
<g id="edge9" class="edge">
<title>SAT&#45;&gt;Học vấn</title>
<path fill="none" stroke="#000000" d="M379.8202,-144.2022C377.0257,-136.1541 373.6593,-126.4588 370.5509,-117.5067"/>
<polygon fill="#000000" stroke="#000000" points="373.7819,-116.1412 367.1953,-107.8425 367.1692,-118.4374 373.7819,-116.1412"/>
</g>
<!-- Trí tuệ -->
<g id="node10" class="node">
<title>Trí tuệ</title>
<ellipse fill="none" stroke="#000000" cx="414" cy="-234" rx="35.194" ry="18"/>
<text text-anchor="middle" x="414" y="-230.3" font-family="Times,serif" font-size="14.00" fill="#000000">Trí tuệ</text>
</g>
<!-- Trí tuệ&#45;&gt;Lương -->
<g id="edge12" class="edge">
<title>Trí tuệ&#45;&gt;Lương</title>
<path fill="none" stroke="#000000" d="M418.5626,-215.8397C425.4043,-184.6112 435.2013,-119.5173 412,-72 406.2095,-60.1407 396.8978,-49.1331 387.8058,-40.1917"/>
<polygon fill="#000000" stroke="#000000" points="390.0025,-37.4545 380.3023,-33.1935 385.2281,-42.5736 390.0025,-37.4545"/>
</g>
<!-- Trí tuệ&#45;&gt;SAT -->
<g id="edge11" class="edge">
<title>Trí tuệ&#45;&gt;SAT</title>
<path fill="none" stroke="#000000" d="M407.0786,-216.2022C403.8914,-208.0064 400.0398,-198.1024 396.5057,-189.0145"/>
<polygon fill="#000000" stroke="#000000" points="399.7283,-187.6445 392.8417,-179.593 393.2042,-190.1817 399.7283,-187.6445"/>
</g>
</g>
</svg>
