<?xml version="1.0" encoding="UTF-8" standalone="no"?>
<!DOCTYPE svg PUBLIC "-//W3C//DTD SVG 1.1//EN"
 "http://www.w3.org/Graphics/SVG/1.1/DTD/svg11.dtd">
<!-- Generated by graphviz version 2.40.1 (20161225.0304)
 -->
<!-- Title: %3 Pages: 1 -->
<svg width="508pt" height="116pt"
 viewBox="0.00 0.00 508.25 116.00" xmlns="http://www.w3.org/2000/svg" xmlns:xlink="http://www.w3.org/1999/xlink">
<g id="graph0" class="graph" transform="scale(1 1) rotate(0) translate(4 112)">
<title>%3</title>
<polygon fill="#ffffff" stroke="transparent" points="-4,4 -4,-112 504.2463,-112 504.2463,4 -4,4"/>
<!-- B -->
<g id="node1" class="node">
<title>B</title>
<ellipse fill="none" stroke="#000000" cx="27" cy="-90" rx="27" ry="18"/>
<text text-anchor="middle" x="27" y="-86.3" font-family="Times,serif" font-size="14.00" fill="#000000">B</text>
</g>
<!-- C -->
<g id="node2" class="node">
<title>C</title>
<ellipse fill="none" stroke="#000000" cx="63" cy="-18" rx="27" ry="18"/>
<text text-anchor="middle" x="63" y="-14.3" font-family="Times,serif" font-size="14.00" fill="#000000">C</text>
</g>
<!-- B&#45;&gt;C -->
<g id="edge1" class="edge">
<title>B&#45;&gt;C</title>
<path fill="none" stroke="#000000" d="M35.7146,-72.5708C39.9597,-64.0807 45.1536,-53.6929 49.8663,-44.2674"/>
<polygon fill="#000000" stroke="#000000" points="53.024,-45.7782 54.3657,-35.2687 46.763,-42.6477 53.024,-45.7782"/>
</g>
<!-- A -->
<g id="node3" class="node">
<title>A</title>
<ellipse fill="none" stroke="#000000" cx="99" cy="-90" rx="27" ry="18"/>
<text text-anchor="middle" x="99" y="-86.3" font-family="Times,serif" font-size="14.00" fill="#000000">A</text>
</g>
<!-- A&#45;&gt;C -->
<g id="edge2" class="edge">
<title>A&#45;&gt;C</title>
<path fill="none" stroke="#000000" d="M90.2854,-72.5708C86.0403,-64.0807 80.8464,-53.6929 76.1337,-44.2674"/>
<polygon fill="#000000" stroke="#000000" points="79.237,-42.6477 71.6343,-35.2687 72.976,-45.7782 79.237,-42.6477"/>
</g>
<!-- Y -->
<g id="node4" class="node">
<title>Y</title>
<ellipse fill="none" stroke="#000000" cx="171" cy="-90" rx="27" ry="18"/>
<text text-anchor="middle" x="171" y="-86.3" font-family="Times,serif" font-size="14.00" fill="#000000">Y</text>
</g>
<!-- X -->
<g id="node5" class="node">
<title>X</title>
<ellipse fill="none" stroke="#ff0000" cx="207" cy="-18" rx="27" ry="18"/>
<text text-anchor="middle" x="207" y="-14.3" font-family="Times,serif" font-size="14.00" fill="#000000">X</text>
</g>
<!-- Y&#45;&gt;X -->
<g id="edge3" class="edge">
<title>Y&#45;&gt;X</title>
<path fill="none" stroke="#000000" d="M179.7146,-72.5708C183.9597,-64.0807 189.1536,-53.6929 193.8663,-44.2674"/>
<polygon fill="#000000" stroke="#000000" points="197.024,-45.7782 198.3657,-35.2687 190.763,-42.6477 197.024,-45.7782"/>
</g>
<!-- Z -->
<g id="node6" class="node">
<title>Z</title>
<ellipse fill="none" stroke="#000000" cx="243" cy="-90" rx="27" ry="18"/>
<text text-anchor="middle" x="243" y="-86.3" font-family="Times,serif" font-size="14.00" fill="#000000">Z</text>
</g>
<!-- Z&#45;&gt;X -->
<g id="edge4" class="edge">
<title>Z&#45;&gt;X</title>
<path fill="none" stroke="#000000" d="M234.2854,-72.5708C230.0403,-64.0807 224.8464,-53.6929 220.1337,-44.2674"/>
<polygon fill="#000000" stroke="#000000" points="223.237,-42.6477 215.6343,-35.2687 216.976,-45.7782 223.237,-42.6477"/>
</g>
<!-- chuyên môn -->
<g id="node7" class="node">
<title>chuyên môn</title>
<ellipse fill="none" stroke="#000000" cx="343" cy="-90" rx="55.4913" ry="18"/>
<text text-anchor="middle" x="343" y="-86.3" font-family="Times,serif" font-size="14.00" fill="#000000">chuyên môn</text>
</g>
<!-- thăng tiến -->
<g id="node8" class="node">
<title>thăng tiến</title>
<ellipse fill="none" stroke="#000000" cx="400" cy="-18" rx="47.3916" ry="18"/>
<text text-anchor="middle" x="400" y="-14.3" font-family="Times,serif" font-size="14.00" fill="#000000">thăng tiến</text>
</g>
<!-- chuyên môn&#45;&gt;thăng tiến -->
<g id="edge5" class="edge">
<title>chuyên môn&#45;&gt;thăng tiến</title>
<path fill="none" stroke="#000000" d="M357.0899,-72.2022C363.9744,-63.506 372.3813,-52.8867 379.9235,-43.3598"/>
<polygon fill="#000000" stroke="#000000" points="382.806,-45.3575 386.2689,-35.3446 377.3176,-41.0126 382.806,-45.3575"/>
</g>
<!-- tâng bốc -->
<g id="node9" class="node">
<title>tâng bốc</title>
<ellipse fill="none" stroke="#000000" cx="458" cy="-90" rx="42.4939" ry="18"/>
<text text-anchor="middle" x="458" y="-86.3" font-family="Times,serif" font-size="14.00" fill="#000000">tâng bốc</text>
</g>
<!-- tâng bốc&#45;&gt;thăng tiến -->
<g id="edge6" class="edge">
<title>tâng bốc&#45;&gt;thăng tiến</title>
<path fill="none" stroke="#000000" d="M444.2548,-72.937C437.1363,-64.1003 428.3035,-53.1354 420.4056,-43.3311"/>
<polygon fill="#000000" stroke="#000000" points="423.0484,-41.0326 414.0494,-35.4407 417.5971,-45.4239 423.0484,-41.0326"/>
</g>
</g>
</svg>
