<?xml version="1.0" encoding="UTF-8" standalone="no"?>
<!DOCTYPE svg PUBLIC "-//W3C//DTD SVG 1.1//EN"
 "http://www.w3.org/Graphics/SVG/1.1/DTD/svg11.dtd">
<!-- Generated by graphviz version 2.42.3 (20191010.1750)
 -->
<!-- Title: %3 Pages: 1 -->
<svg width="115pt" height="188pt"
 viewBox="0.00 0.00 115.25 188.00" xmlns="http://www.w3.org/2000/svg" xmlns:xlink="http://www.w3.org/1999/xlink">
<g id="graph0" class="graph" transform="scale(1 1) rotate(0) translate(4 184)">
<title>%3</title>
<polygon fill="white" stroke="transparent" points="-4,4 -4,-184 111.25,-184 111.25,4 -4,4"/>
<!-- X -->
<g id="node1" class="node">
<title>X</title>
<ellipse fill="none" stroke="black" cx="80.25" cy="-162" rx="27" ry="18"/>
<text text-anchor="middle" x="80.25" y="-157.8" font-family="Times,serif" font-size="14.00">X</text>
</g>
<!-- Can thiệp -->
<g id="node2" class="node">
<title>Can thiệp</title>
<ellipse fill="none" stroke="black" cx="44.25" cy="-90" rx="44.49" ry="18"/>
<text text-anchor="middle" x="44.25" y="-85.8" font-family="Times,serif" font-size="14.00">Can thiệp</text>
</g>
<!-- X&#45;&gt;Can thiệp -->
<g id="edge1" class="edge">
<title>X&#45;&gt;Can thiệp</title>
<path fill="none" stroke="black" d="M71.9,-144.76C67.7,-136.61 62.52,-126.53 57.77,-117.31"/>
<polygon fill="black" stroke="black" points="60.74,-115.42 53.05,-108.12 54.51,-118.62 60.74,-115.42"/>
</g>
<!-- Y -->
<g id="node3" class="node">
<title>Y</title>
<ellipse fill="none" stroke="black" cx="80.25" cy="-18" rx="27" ry="18"/>
<text text-anchor="middle" x="80.25" y="-13.8" font-family="Times,serif" font-size="14.00">Y</text>
</g>
<!-- X&#45;&gt;Y -->
<g id="edge2" class="edge">
<title>X&#45;&gt;Y</title>
<path fill="none" stroke="black" d="M87.14,-144.14C90.95,-133.88 95.3,-120.41 97.25,-108 99.72,-92.19 99.72,-87.81 97.25,-72 95.87,-63.18 93.27,-53.82 90.51,-45.46"/>
<polygon fill="black" stroke="black" points="93.75,-44.13 87.14,-35.86 87.15,-46.45 93.75,-44.13"/>
</g>
<!-- Can thiệp&#45;&gt;Y -->
<g id="edge3" class="edge">
<title>Can thiệp&#45;&gt;Y</title>
<path fill="none" stroke="black" d="M52.96,-72.05C57.22,-63.77 62.44,-53.62 67.17,-44.42"/>
<polygon fill="black" stroke="black" points="70.4,-45.8 71.86,-35.31 64.17,-42.6 70.4,-45.8"/>
</g>
</g>
</svg>
